<?xml version="1.0" encoding="UTF-8"?>
<svg id="Layer_1" data-name="Layer 1" xmlns="http://www.w3.org/2000/svg" viewBox="0 0 320.83 330.67">
  <defs>
    <style>
      .cls-1 {
        fill: #69bbdc;
      }

      .cls-2 {
        fill: #002e46;
      }
    </style>
  </defs>
  <g>
    <path class="cls-2" d="M10.12,244.12c1.27-.81,2.79-1.22,4.52-1.22s3.03,.4,4.18,1.23c1.17,.84,1.99,1.9,2.52,3.24l.27,.67h6.44l-.41-1.37c-.84-2.79-2.48-5.1-4.87-6.86-2.39-1.75-5.3-2.64-8.66-2.64-2.84,0-5.35,.67-7.46,1.99-2.1,1.31-3.75,3.11-4.91,5.34-1.15,2.21-1.74,4.71-1.74,7.41s.58,5.15,1.74,7.38c1.16,2.25,2.82,4.06,4.91,5.37,2.11,1.32,4.62,1.99,7.46,1.99,3.36,0,6.28-.89,8.66-2.65,2.39-1.76,4.02-4.06,4.87-6.86l.41-1.37h-6.44l-.27,.67c-.53,1.34-1.36,2.4-2.52,3.24-1.15,.83-2.52,1.23-4.18,1.23s-3.25-.41-4.52-1.22c-1.28-.81-2.28-1.91-2.96-3.27-.7-1.38-1.05-2.91-1.05-4.53s.36-3.19,1.05-4.56c.69-1.34,1.68-2.43,2.97-3.25Z"/>
    <path class="cls-2" d="M50.65,239.16c-2.12-1.32-4.68-1.99-7.59-1.99s-5.42,.67-7.56,1.99c-2.14,1.32-3.8,3.12-4.95,5.35-1.13,2.21-1.71,4.7-1.71,7.41s.6,5.16,1.8,7.39c1.2,2.25,2.91,4.05,5.08,5.37,2.17,1.32,4.73,1.98,7.6,1.98,3.37,0,6.18-.83,8.36-2.47,2.15-1.62,3.74-3.73,4.73-6.27l.56-1.44h-6.53l-.3,.56c-.62,1.15-1.5,2.1-2.62,2.83-1.09,.71-2.49,1.07-4.14,1.07s-2.97-.34-4.14-1c-1.2-.68-2.12-1.56-2.83-2.71-.5-.82-.88-1.7-1.13-2.65h22v-2.65c0-2.7-.57-5.2-1.71-7.41-1.15-2.23-2.8-4.03-4.92-5.35Zm-15.27,9.57c.44-1.5,1.21-2.77,2.3-3.86,1.35-1.33,3.11-1.98,5.38-1.98s4.05,.65,5.41,1.98c1.11,1.09,1.86,2.35,2.29,3.86h-15.39Z"/>
    <path class="cls-2" d="M79.56,238.6c-1.76-.95-3.67-1.43-5.68-1.43-2.35,0-4.33,.5-5.87,1.49-.66,.42-1.29,.9-1.87,1.41v-2.48h-6.1v28.64h6.1v-16.34c0-1.39,.32-2.63,.94-3.68,.63-1.07,1.45-1.87,2.5-2.45,1.04-.58,2.22-.87,3.51-.87,1.9,0,3.4,.61,4.58,1.87,1.2,1.28,1.78,2.94,1.78,5.08v16.39h6.1v-16.5c0-2.69-.56-5-1.66-6.87-1.1-1.88-2.56-3.31-4.34-4.27Z"/>
    <polygon class="cls-2" points="98.39 228.11 92.29 228.11 92.29 237.6 86.88 237.6 86.88 243.22 92.29 243.22 92.29 266.24 98.39 266.24 98.39 243.22 104.49 243.22 104.49 237.6 98.39 237.6 98.39 228.11"/>
    <path class="cls-2" d="M122.84,237.18h-1.33c-1.77,0-3.34,.31-4.66,.92-1.29,.6-2.39,1.34-3.25,2.2-.28,.29-.55,.57-.79,.86v-3.55h-6.1v28.64h6.1v-12.73c0-1.79,.35-3.49,1.05-5.06,.68-1.54,1.68-2.81,2.96-3.77,1.26-.95,2.72-1.4,4.48-1.4h1.54v-6.1Z"/>
    <path class="cls-2" d="M145.01,240.16c-.69-.61-1.45-1.14-2.28-1.59-1.72-.93-3.79-1.4-6.15-1.4-2.77,0-5.24,.67-7.33,1.99-2.08,1.32-3.71,3.12-4.86,5.34-1.13,2.21-1.71,4.7-1.71,7.41s.57,5.15,1.71,7.37c1.14,2.25,2.78,4.06,4.86,5.38,2.09,1.32,4.56,1.99,7.33,1.99,2.36,0,4.43-.47,6.15-1.4,.83-.45,1.59-.97,2.28-1.57v2.55h6.1v-28.64h-6.1v2.56Zm-.75,7.17c.64,1.37,.96,2.92,.96,4.59s-.33,3.18-.96,4.57c-.63,1.37-1.53,2.43-2.73,3.25-1.18,.79-2.66,1.2-4.42,1.2s-3.23-.41-4.46-1.21c-1.26-.82-2.2-1.89-2.86-3.26-.67-1.38-1.01-2.92-1.01-4.55s.34-3.21,1.01-4.57c.66-1.36,1.6-2.42,2.86-3.24,1.23-.8,2.73-1.21,4.46-1.21s3.24,.4,4.42,1.2c1.21,.82,2.1,1.87,2.74,3.23Z"/>
    <rect class="cls-2" x="155.88" y="226.99" width="6.1" height="39.25"/>
    <path class="cls-2" d="M195.41,250.46c-1.4-.55-2.9-.99-4.45-1.3-1.48-.3-2.9-.61-4.22-.94-1.22-.3-2.22-.71-2.96-1.21-.55-.37-.8-.85-.8-1.56,0-.75,0-2.76,5.25-2.76,1.93,0,3.36,.34,4.12,.97,.77,.64,1.19,1.37,1.3,2.24l.12,.93h6.15l-.13-1.18c-.16-1.47-.67-2.87-1.53-4.14-.86-1.28-2.12-2.34-3.75-3.14-1.61-.79-3.69-1.2-6.17-1.2-3.65,0-6.48,.74-8.41,2.2-2.02,1.53-3.05,3.7-3.05,6.44,0,1.89,.52,3.42,1.55,4.56,.96,1.06,2.2,1.88,3.7,2.45,1.39,.53,2.88,.97,4.43,1.3,1.47,.31,2.9,.64,4.23,.97,1.21,.3,2.2,.72,2.93,1.24,.56,.4,.83,.93,.83,1.68,0,.62-.16,1.11-.48,1.48-.38,.44-.85,.76-1.42,.98-.64,.25-1.32,.43-2.01,.52-.73,.1-1.34,.15-1.82,.15-1.53,0-2.77-.22-3.68-.66-.87-.42-1.52-.97-1.92-1.62-.43-.69-.69-1.41-.78-2.14l-.11-.94h-6.21l.08,1.13c.12,1.74,.68,3.36,1.66,4.84,.99,1.48,2.42,2.68,4.27,3.58,1.82,.88,4.05,1.33,6.64,1.33,3.49,0,6.35-.75,8.48-2.23,2.25-1.57,3.4-3.85,3.4-6.79,0-1.92-.51-3.48-1.53-4.65-.96-1.1-2.2-1.95-3.7-2.54Z"/>
    <polygon class="cls-2" points="212.57 228.11 206.48 228.11 206.48 237.6 201.07 237.6 201.07 243.22 206.48 243.22 206.48 266.24 212.57 266.24 212.57 243.22 218.68 243.22 218.68 237.6 212.57 237.6 212.57 228.11"/>
    <path class="cls-2" d="M241.06,240.16c-.69-.61-1.45-1.14-2.28-1.59-1.72-.93-3.79-1.4-6.15-1.4-2.77,0-5.24,.67-7.33,1.99-2.08,1.32-3.71,3.12-4.86,5.34-1.13,2.21-1.71,4.7-1.71,7.41s.57,5.15,1.71,7.37c1.14,2.25,2.78,4.06,4.86,5.38,2.09,1.32,4.56,1.99,7.33,1.99,2.36,0,4.43-.47,6.15-1.4,.83-.45,1.59-.97,2.28-1.57v2.55h6.1v-28.64h-6.1v2.56Zm-.75,7.17c.64,1.37,.96,2.92,.96,4.59s-.33,3.18-.96,4.57c-.63,1.37-1.53,2.43-2.74,3.25-1.17,.79-2.66,1.2-4.42,1.2s-3.23-.41-4.46-1.21c-1.26-.82-2.2-1.89-2.86-3.26-.67-1.38-1.01-2.92-1.01-4.55s.34-3.21,1.01-4.57c.66-1.36,1.6-2.42,2.86-3.24,1.23-.8,2.73-1.21,4.46-1.21s3.24,.4,4.42,1.2c1.21,.82,2.11,1.87,2.74,3.23Z"/>
    <polygon class="cls-2" points="260.89 228.11 254.79 228.11 254.79 237.6 249.38 237.6 249.38 243.22 254.79 243.22 254.79 266.24 260.89 266.24 260.89 243.22 266.99 243.22 266.99 237.6 260.89 237.6 260.89 228.11"/>
    <path class="cls-2" d="M288.85,239.16c-2.12-1.32-4.68-1.99-7.59-1.99s-5.42,.67-7.56,1.99c-2.14,1.32-3.81,3.12-4.95,5.35-1.13,2.21-1.71,4.7-1.71,7.41s.6,5.16,1.79,7.39c1.2,2.25,2.91,4.05,5.08,5.37,2.17,1.32,4.73,1.98,7.6,1.98,3.37,0,6.18-.83,8.36-2.47,2.15-1.62,3.74-3.73,4.73-6.27l.56-1.44h-6.53l-.3,.56c-.62,1.15-1.5,2.1-2.62,2.83-1.09,.71-2.49,1.07-4.14,1.07s-2.97-.34-4.14-1c-1.2-.68-2.12-1.56-2.83-2.71-.5-.82-.88-1.7-1.13-2.65h22v-2.65c0-2.7-.57-5.2-1.71-7.41-1.15-2.23-2.8-4.03-4.92-5.35Zm-15.27,9.57c.44-1.5,1.21-2.77,2.3-3.86,1.35-1.33,3.11-1.98,5.38-1.98s4.05,.65,5.41,1.98c1.11,1.09,1.87,2.35,2.29,3.86h-15.39Z"/>
    <path class="cls-2" d="M319.29,253c-.96-1.1-2.2-1.95-3.7-2.54-1.4-.55-2.9-.99-4.45-1.3-1.48-.3-2.9-.61-4.22-.94-1.22-.3-2.21-.71-2.96-1.21-.55-.37-.8-.85-.8-1.56,0-.75,0-2.76,5.25-2.76,1.93,0,3.36,.34,4.12,.97,.77,.64,1.19,1.37,1.3,2.24l.12,.93h6.15l-.13-1.18c-.16-1.47-.67-2.87-1.53-4.14-.86-1.28-2.12-2.34-3.75-3.14-1.61-.79-3.68-1.2-6.17-1.2-3.65,0-6.48,.74-8.41,2.2-2.02,1.53-3.05,3.7-3.05,6.44,0,1.89,.52,3.42,1.55,4.56,.96,1.06,2.2,1.88,3.7,2.45,1.39,.53,2.88,.97,4.43,1.3,1.47,.31,2.89,.64,4.23,.97,1.21,.3,2.2,.72,2.93,1.24,.56,.4,.83,.93,.83,1.68,0,.62-.16,1.11-.48,1.48-.39,.44-.85,.76-1.42,.98-.64,.25-1.32,.43-2.01,.52-.73,.1-1.34,.15-1.82,.15-1.53,0-2.77-.22-3.68-.66-.87-.42-1.52-.97-1.92-1.62-.43-.69-.69-1.41-.78-2.14l-.11-.94h-6.21l.08,1.13c.12,1.74,.68,3.36,1.66,4.84,.99,1.48,2.42,2.68,4.26,3.58,1.82,.88,4.05,1.33,6.64,1.33,3.49,0,6.35-.75,8.48-2.23,2.26-1.57,3.4-3.85,3.4-6.79,0-1.92-.52-3.48-1.53-4.65Z"/>
  </g>
  <path class="cls-1" d="M36.71,318.26v-28.07h4.21v4.27c.64-1.12,1.65-2.19,3.03-3.2,1.38-1.01,3.22-1.52,5.5-1.52,1.87,0,3.6,.5,5.19,1.49,1.59,.99,2.83,2.39,3.73,4.18,.37-.64,.96-1.4,1.77-2.3,.8-.9,1.86-1.68,3.17-2.36,1.31-.67,2.88-1.01,4.72-1.01s3.48,.47,5.05,1.4c1.57,.94,2.85,2.27,3.84,4.01,.99,1.74,1.49,3.79,1.49,6.15v16.95h-4.21v-16.84c0-2.36-.66-4.26-1.99-5.7-1.33-1.44-2.99-2.16-4.97-2.16s-3.84,.69-5.33,2.08c-1.5,1.39-2.25,3.33-2.25,5.84v16.79h-4.21v-16.84c0-2.36-.66-4.26-1.99-5.7-1.33-1.44-2.98-2.16-4.97-2.16s-3.84,.69-5.33,2.08c-1.5,1.39-2.24,3.33-2.24,5.84v16.79h-4.21Z"/>
  <path class="cls-1" d="M97.85,314.89c2.1,0,3.87-.48,5.31-1.46,1.44-.97,2.53-2.27,3.28-3.9,.75-1.63,1.12-3.4,1.12-5.31s-.37-3.72-1.12-5.33c-.75-1.61-1.84-2.9-3.28-3.87-1.44-.97-3.21-1.46-5.31-1.46s-3.83,.49-5.33,1.46c-1.5,.97-2.64,2.27-3.42,3.87-.79,1.61-1.18,3.39-1.18,5.33s.39,3.68,1.18,5.31c.78,1.63,1.93,2.93,3.42,3.9s3.27,1.46,5.33,1.46m-.56,3.82c-2.73,0-5.12-.65-7.16-1.94-2.04-1.29-3.62-3.04-4.74-5.25-1.12-2.21-1.69-4.64-1.69-7.3s.56-5.14,1.69-7.32c1.12-2.19,2.7-3.93,4.74-5.22,2.04-1.29,4.43-1.94,7.16-1.94,2.32,0,4.31,.45,5.98,1.35,1.66,.9,3.02,2.11,4.07,3.65v-4.55h4.21v28.07h-4.21v-4.49c-1.05,1.5-2.4,2.69-4.07,3.59-1.67,.9-3.66,1.35-5.98,1.35"/>
  <path class="cls-1" d="M118.84,318.26v-28.07h4.21v6.91c.15-.49,.44-1.13,.87-1.94,.43-.8,1.06-1.62,1.88-2.44,.82-.82,1.86-1.53,3.12-2.11,1.25-.58,2.74-.87,4.46-.87h.28v4.21h-.5c-2.1,0-3.9,.57-5.42,1.71-1.51,1.14-2.68,2.62-3.48,4.44-.8,1.82-1.21,3.75-1.21,5.81v12.35h-4.21Z"/>
  <polygon class="cls-1" points="138.21 318.26 138.21 278.96 142.42 278.96 142.42 304.11 155.95 290.19 161.85 290.19 150.56 301.25 162.69 318.26 157.52 318.26 147.7 304.16 142.42 309.38 142.42 318.26 138.21 318.26"/>
  <path class="cls-1" d="M167.63,301.97h19.08c-.37-2.39-1.38-4.4-3.03-6.01-1.65-1.61-3.82-2.41-6.51-2.41s-4.86,.8-6.48,2.41c-1.63,1.61-2.65,3.61-3.06,6.01m9.82,16.73c-2.84,0-5.33-.65-7.47-1.94-2.13-1.29-3.79-3.04-4.97-5.25-1.18-2.21-1.77-4.64-1.77-7.3s.56-5.14,1.68-7.32c1.12-2.19,2.73-3.93,4.83-5.22,2.09-1.29,4.57-1.94,7.41-1.94s5.36,.65,7.44,1.94c2.08,1.29,3.68,3.03,4.8,5.22,1.12,2.19,1.69,4.63,1.69,7.32v1.68h-23.52c.22,1.65,.76,3.15,1.6,4.52,.84,1.37,1.97,2.45,3.4,3.26,1.42,.8,3.07,1.21,4.94,1.21,1.98,0,3.65-.44,5-1.32,1.35-.88,2.39-2.01,3.14-3.4h4.6c-.97,2.51-2.52,4.56-4.63,6.15-2.12,1.59-4.84,2.39-8.17,2.39"/>
  <polygon class="cls-1" points="199.29 318.26 199.29 293.89 193.56 293.89 193.56 290.19 199.29 290.19 199.29 280.14 203.5 280.14 203.5 290.19 209.95 290.19 209.95 293.89 203.5 293.89 203.5 318.26 199.29 318.26"/>
  <path class="cls-1" d="M214.56,290.19h4.21v28.07h-4.21v-28.07Zm-.17-10.22h4.55v5.5h-4.55v-5.5Z"/>
  <path class="cls-1" d="M226.06,318.26v-28.07h4.21v4.38c1.01-1.35,2.25-2.49,3.7-3.42,1.46-.94,3.33-1.4,5.62-1.4,1.94,0,3.77,.46,5.47,1.38,1.7,.92,3.09,2.28,4.15,4.1,1.07,1.82,1.6,4.05,1.6,6.71v16.34h-4.21v-16.22c0-2.54-.73-4.59-2.19-6.15-1.46-1.55-3.35-2.33-5.67-2.33-1.57,0-2.99,.35-4.27,1.07-1.27,.71-2.29,1.71-3.06,3-.77,1.29-1.15,2.78-1.15,4.46v16.17h-4.21Z"/>
  <path class="cls-1" d="M270.24,314.44c2.06,0,3.81-.47,5.25-1.4,1.44-.94,2.54-2.2,3.31-3.79,.77-1.59,1.15-3.34,1.15-5.25s-.38-3.7-1.15-5.28c-.77-1.57-1.87-2.83-3.31-3.76-1.44-.93-3.19-1.4-5.25-1.4s-3.84,.47-5.33,1.4c-1.5,.94-2.64,2.19-3.42,3.76-.79,1.57-1.18,3.33-1.18,5.28s.39,3.66,1.18,5.25c.79,1.59,1.93,2.85,3.42,3.79,1.5,.93,3.27,1.4,5.33,1.4m.45,15.38c-3.52,0-6.38-.76-8.59-2.27-2.21-1.52-3.7-3.49-4.49-5.92h4.66c.56,1.38,1.53,2.46,2.92,3.23,1.38,.77,3.14,1.15,5.28,1.15,3.22,0,5.57-.76,7.05-2.27,1.48-1.52,2.22-3.71,2.22-6.6v-3.87c-1.05,1.5-2.4,2.7-4.07,3.62-1.67,.92-3.66,1.38-5.98,1.38-2.73,0-5.12-.63-7.16-1.88-2.04-1.26-3.62-2.97-4.74-5.14-1.12-2.17-1.68-4.58-1.68-7.24s.56-5.12,1.68-7.27c1.12-2.15,2.7-3.85,4.74-5.11,2.04-1.25,4.43-1.88,7.16-1.88,2.32,0,4.31,.44,5.98,1.32,1.67,.88,3.02,2.09,4.07,3.62v-4.49h4.21v27.23c0,4-1.15,7.07-3.45,9.21-2.31,2.13-5.57,3.2-9.8,3.2"/>
  <path class="cls-2" d="M208.98,2.61V109.79c0,53.77-43.56,97.33-97.3,97.33v-73.71c12.1-3.84,20.91-15.18,20.91-28.56,0-12.35-7.53-23.01-18.26-27.59C124.54,34.44,163.04,2.61,208.98,2.61Z"/>
  <path class="cls-1" d="M222.34,2.6h0V207.11h97.31V99.91c0-53.74-43.57-97.31-97.31-97.31h0Z"/>
  <path class="cls-2" d="M98.3,2.61V75.22c-14.45,2.13-25.57,14.63-25.57,29.63s11.13,27.49,25.57,29.63v72.64C44.56,207.12,1,163.53,1,109.79v-9.88C1,46.17,44.56,2.61,98.3,2.61Z"/>
  <path class="cls-1" d="M120.49,104.85c0,6.55-3.54,12.28-8.81,15.36-2.65,1.59-5.73,2.47-9.02,2.47-1.49,0-2.96-.18-4.36-.55-7.74-1.95-13.47-8.96-13.47-17.28s5.73-15.33,13.47-17.28c1.4-.37,2.87-.55,4.36-.55,3.51,0,6.8,1.04,9.54,2.77,5,3.17,8.29,8.75,8.29,15.06Z"/>
</svg>