<svg xmlns="http://www.w3.org/2000/svg">
	<symbol id="facebook" viewBox="0 0 155.139 155.139" fill="currentColor">
		<path d="M89.584,155.139V84.378h23.742l3.562-27.585H89.584V39.184
	c0-7.984,2.208-13.425,13.67-13.425l14.595-0.006V1.08C115.325,0.752,106.661,0,96.577,0C75.52,0,61.104,12.853,61.104,36.452 v20.341H37.29v27.585h23.814v70.761H89.584z"></path>
	</symbol>
	<symbol id="twitter" viewBox="0 0 1226.37 1226.37" fill="currentColor">
		<path d="m727.348 519.284 446.727-519.284h-105.86l-387.893 450.887-309.809-450.887h-357.328l468.492 681.821-468.492 544.549h105.866l409.625-476.152 327.181 476.152h357.328l-485.863-707.086zm-144.998 168.544-47.468-67.894-377.686-540.24h162.604l304.797 435.991 47.468 67.894 396.2 566.721h-162.604l-323.311-462.446z"></path>
	</symbol>
	<symbol id="youtube" viewBox="-21 -117 682.66672 682" fill="currentColor">
		<path d="m626.8125 64.035156c-7.375-27.417968-28.992188-49.03125-56.40625-56.414062-50.082031-13.703125-250.414062-13.703125-250.414062-13.703125s-200.324219 0-250.40625 13.183593c-26.886719 7.375-49.03125 29.519532-56.40625 56.933594-13.179688 50.078125-13.179688 153.933594-13.179688 153.933594s0 104.378906 13.179688 153.933594c7.382812 27.414062 28.992187 49.027344 56.410156 56.410156 50.605468 13.707031 250.410156 13.707031 250.410156 13.707031s200.324219 0 250.40625-13.183593c27.417969-7.378907 49.03125-28.992188 56.414062-56.40625 13.175782-50.082032 13.175782-153.933594 13.175782-153.933594s.527344-104.382813-13.183594-154.460938zm-370.601562 249.878906v-191.890624l166.585937 95.945312zm0 0"></path>
	</symbol>
	<symbol id="instagram" viewBox="0 0 409.61 409.61" fill="currentColor">
		<path d="M307.205,0h-204.8C46.09,0,0.005,46.085,0.005,102.4v204.81c0,56.3,46.085,102.4,102.4,102.4h204.8
			c56.315,0,102.4-46.1,102.4-102.4V102.4C409.605,46.085,363.52,0,307.205,0z M375.47,307.21c0,37.632-30.612,68.265-68.265,68.265
			h-204.8c-37.637,0-68.265-30.633-68.265-68.265V102.4c0-37.642,30.628-68.265,68.265-68.265h204.8
			c37.653,0,68.265,30.623,68.265,68.265V307.21z"></path>
		<circle cx="315.755" cy="93.865" r="25.6"></circle>
		<path d="M204.805,102.4c-56.566,0-102.4,45.839-102.4,102.4c0,56.54,45.834,102.41,102.4,102.41c56.55,0,102.4-45.87,102.4-102.41
			C307.205,148.239,261.355,102.4,204.805,102.4z M204.805,273.075c-37.699,0-68.265-30.566-68.265-68.275
			s30.566-68.265,68.265-68.265s68.265,30.556,68.265,68.265S242.504,273.075,204.805,273.075z"></path>
	</symbol>
	<symbol id="linkedin" viewBox="0 0 100 100" fill="currentColor">
		<path d="m90 90v-29.3c0-14.4-3.1-25.4-19.9-25.4-8.1 0-13.5 4.4-15.7 8.6h-.2v-7.3h-15.9v53.4h16.6v-26.5c0-7 1.3-13.7 9.9-13.7 8.5 0 8.6 7.9 8.6 14.1v26h16.6z"></path>
		<path d="m11.3 36.6h16.6v53.4h-16.6z"></path>
		<path d="m19.6 10c-5.3 0-9.6 4.3-9.6 9.6s4.3 9.7 9.6 9.7 9.6-4.4 9.6-9.7-4.3-9.6-9.6-9.6z"></path>
	</symbol>
	<symbol id="pinterest" viewBox="0 0 511.977 511.977" fill="currentColor">
		<path d="M262.948,0C122.628,0,48.004,89.92,48.004,187.968c0,45.472,25.408,102.176,66.08,120.16
			c6.176,2.784,9.536,1.6,10.912-4.128c1.216-4.352,6.56-25.312,9.152-35.2c0.8-3.168,0.384-5.92-2.176-8.896
			c-13.504-15.616-24.224-44.064-24.224-70.752c0-68.384,54.368-134.784,146.88-134.784c80,0,135.968,51.968,135.968,126.304
			c0,84-44.448,142.112-102.208,142.112c-31.968,0-55.776-25.088-48.224-56.128c9.12-36.96,27.008-76.704,27.008-103.36
			c0-23.904-13.504-43.68-41.088-43.68c-32.544,0-58.944,32.224-58.944,75.488c0,27.488,9.728,46.048,9.728,46.048
			S144.676,371.2,138.692,395.488c-10.112,41.12,1.376,107.712,2.368,113.44c0.608,3.168,4.16,4.16,6.144,1.568
			c3.168-4.16,42.08-59.68,52.992-99.808c3.968-14.624,20.256-73.92,20.256-73.92c10.72,19.36,41.664,35.584,74.624,35.584
			c98.048,0,168.896-86.176,168.896-193.12C463.62,76.704,375.876,0,262.948,0z"></path>
	</symbol>
	<symbol id="menu" viewBox="0 -53 384 384" fill="currentColor">
		<path d="m368 154.667969h-352c-8.832031 0-16-7.167969-16-16s7.167969-16 16-16h352c8.832031 0 16 7.167969 16 16s-7.167969 16-16 16zm0 0"></path>
		<path d="m368 32h-352c-8.832031 0-16-7.167969-16-16s7.167969-16 16-16h352c8.832031 0 16 7.167969 16 16s-7.167969 16-16 16zm0 0"></path>
		<path d="m368 277.332031h-352c-8.832031 0-16-7.167969-16-16s7.167969-16 16-16h352c8.832031 0 16 7.167969 16 16s-7.167969 16-16 16zm0 0"></path>
	</symbol>
	<symbol id="close" viewBox="0 0 512 512" fill="currentColor">
		<path d="m25 512a25 25 0 0 1 -17.68-42.68l462-462a25 25 0 0 1 35.36 35.36l-462 462a24.93 24.93 0 0 1 -17.68 7.32z"></path>
		<path d="m487 512a24.93 24.93 0 0 1 -17.68-7.32l-462-462a25 25 0 0 1 35.36-35.36l462 462a25 25 0 0 1 -17.68 42.68z"></path>
	</symbol>
	<symbol id="chevron" class="chevron" viewBox="0 0 150 150" fill="currentColor">
		<path d="m74.6 96.9-41.1-41 2.1-2.2 39 39 38.9-39 2.1 2.2z"></path>
	</symbol>
	<symbol id="upChevron" class="up-chevron" viewBox="0 0 407.436 407.436" fill="#fff">
		<g transform="matrix(6.123233995736766e-17,-1,1,6.123233995736766e-17,-0.00051116943359375,407.4354934692383)"><path d="M315.869 21.178 294.621 0 91.566 203.718l203.055 203.718 21.248-21.178-181.945-182.54z" opacity="1" data-original="#000000" class=""></path></g>
	</symbol>
	<symbol id="search" viewBox="0 0 512.005 512.005" fill="currentColor">
		<path d="M505.749,475.587l-145.6-145.6c28.203-34.837,45.184-79.104,45.184-127.317c0-111.744-90.923-202.667-202.667-202.667
			S0,90.925,0,202.669s90.923,202.667,202.667,202.667c48.213,0,92.48-16.981,127.317-45.184l145.6,145.6
			c4.16,4.16,9.621,6.251,15.083,6.251s10.923-2.091,15.083-6.251C514.091,497.411,514.091,483.928,505.749,475.587z M202.667,362.669c-88.235,0-160-71.765-160-160s71.765-160,160-160s160,71.765,160,160S290.901,362.669,202.667,362.669z"></path>
	</symbol>
	<symbol id="arrow-prev" viewBox="0 0 19 14" fill="currentColor">
		<path d="M18.354 7.146a.5.5 0 0 0 0-.708L14.464 2.293a.5.5 0 1 0-.708.708L17.293 7l-3.854 3.854a.5.5 0 0 0 .708.708l4.5-4.5zM0 7.5h18v-1H0v1z" />
	</symbol>
	<symbol id="arrow-next" viewBox="0 0 19 14" fill="currentColor">
		<path d="M18.354 7.146a.5.5 0 0 0 0-.708L14.464 2.293a.5.5 0 1 0-.708.708L17.293 7l-3.854 3.854a.5.5 0 0 0 .708.708l4.5-4.5zM0 7.5h18v-1H0v1z" />
	</symbol>
	<symbol id="strategy" viewBox="0 0 54 57" fill="currentColor">
		<path d="M28.042 29.2488C27.8403 29.2488 27.5377 29.1474 27.336 28.9446L10.3908 13.8346C9.98732 13.4289 9.98732 12.8205 10.2899 12.4148C10.6934 12.0092 11.2986 11.9078 11.702 12.3134L28.7481 27.5249C29.1516 27.9305 29.1516 28.539 28.849 28.9446C28.6472 29.1474 28.3446 29.2488 28.042 29.2488Z" />
		<path d="M28.0422 29.7558C27.6388 29.7558 27.2353 29.553 26.9327 29.3502L10.0884 14.2401C9.4832 13.6316 9.4832 12.719 9.88665 12.1105C10.5927 11.4006 11.5005 11.4006 12.1057 11.9077L29.1518 27.1192C29.7569 27.7276 29.7569 28.6403 29.3535 29.2488C28.95 29.553 28.4457 29.7558 28.0422 29.7558ZM11.097 12.6175C10.8953 12.6175 10.7944 12.719 10.6936 12.8204C10.5927 12.9218 10.5927 13.3274 10.7944 13.5302L27.7397 28.6403C27.8405 28.7417 28.0422 28.8431 28.1431 28.8431C28.3448 28.8431 28.5466 28.7417 28.5466 28.6403C28.6474 28.5389 28.6474 28.1332 28.4457 27.9304L11.3996 12.719C11.2988 12.6175 11.1979 12.6175 11.097 12.6175Z" />
		<path d="M10.189 19.8176C9.78554 19.8176 9.48294 19.7162 9.18035 19.4119L2.92676 13.8344L3.22935 12.5161L3.9354 12.4147L10.6933 11.1978L18.6616 18.2964L10.4916 19.7162C10.2899 19.8176 10.2899 19.8176 10.189 19.8176ZM6.15442 14.1386L10.2899 17.7894L14.1227 17.0795L9.98726 13.4288L6.15442 14.1386Z" />
		<path d="M10.1892 20.3248C9.58401 20.3248 9.18056 20.1219 8.7771 19.8177L2.32178 14.0373L2.72523 12.1106L3.73388 12.0092L10.6935 10.7922L19.6705 18.8036L10.4918 20.4262C10.4918 20.3248 10.3909 20.3248 10.1892 20.3248ZM3.53215 13.6317L9.58401 19.0064C9.78574 19.2092 9.98747 19.3107 10.2901 19.3107C10.2901 19.3107 10.2901 19.3107 10.3909 19.3107H10.4918L17.6532 18.0937L10.6935 11.9077L3.83474 13.1247L3.53215 13.6317ZM10.1892 18.2966L5.04512 13.8345L10.1892 12.9218L15.3333 17.3839L10.1892 18.2966ZM7.26413 14.443L10.3909 17.2825L12.9125 16.7754L9.78574 13.9359L7.26413 14.443Z" />
		<path d="M17.2495 19.919L9.28125 12.8203L9.68471 5.31598L10.7942 4.70752L11.2985 5.11316L17.0478 10.2851C17.4513 10.5893 17.5521 11.0963 17.5521 11.502L17.2495 19.919ZM11.2985 11.9076L15.434 15.5584L15.6357 11.7048L11.5003 8.05404L11.2985 11.9076Z" />
		<path d="M17.7538 21.0346L8.77686 13.0232L9.18031 5.01181L10.7941 4.09912L11.6011 4.70758L17.3503 9.87948C17.8546 10.1837 18.0564 10.7922 18.0564 11.502L17.7538 21.0346ZM9.7855 12.6175L16.7451 18.8035L17.0477 11.502C17.0477 11.2992 16.9469 10.8936 16.7451 10.6908L10.6933 5.31604L10.189 5.62027L9.7855 12.6175ZM15.8374 16.6739L10.6933 12.2119L10.9959 7.04001L16.14 11.502L15.8374 16.6739ZM11.8028 11.7049L14.9296 14.5443L15.0304 12.0091L11.9037 9.16961L11.8028 11.7049Z" />
		<path d="M28.1429 43.0404C20.0738 43.0404 13.5176 36.4488 13.5176 28.336C13.5176 26.105 14.0219 23.9754 14.9297 22.0486C15.1314 21.5416 15.7366 21.3387 16.2409 21.5416C16.7452 21.7444 16.947 22.3528 16.7452 22.8599C15.9383 24.5838 15.5349 26.4092 15.5349 28.336C15.5349 35.3333 21.1833 41.0122 28.1429 41.0122C35.1026 41.0122 40.751 35.3333 40.751 28.336C40.751 21.3387 35.1026 15.6598 28.1429 15.6598C25.7222 15.6598 23.5032 16.3697 21.4859 17.5866C20.9815 17.8908 20.3764 17.7894 20.0738 17.2823C19.7712 16.7753 19.872 16.1668 20.3764 15.8626C22.6962 14.4429 25.4196 13.6316 28.1429 13.6316C36.2121 13.6316 42.7682 20.2232 42.7682 28.336C42.7682 36.4488 36.2121 43.0404 28.1429 43.0404Z" />
		<path d="M28.1428 43.5474C19.7711 43.5474 13.0132 36.7529 13.0132 28.3359C13.0132 26.1049 13.5175 23.8739 14.4253 21.8457C14.7279 21.1358 15.6357 20.7302 16.3417 21.0344C17.0478 21.3386 17.4512 22.2513 17.1486 22.9612C16.3417 24.6852 15.9383 26.4091 15.9383 28.2345C15.9383 34.9276 21.3849 40.4037 28.042 40.4037C34.699 40.4037 40.1457 34.9276 40.1457 28.2345C40.1457 21.5415 34.699 16.0653 28.042 16.0653C25.823 16.0653 23.7048 16.6738 21.6875 17.8907C20.8806 18.3978 19.9728 18.0935 19.5694 17.3837C19.3676 16.978 19.2668 16.5724 19.3676 16.2682C19.4685 15.8625 19.6702 15.5583 20.0737 15.2541C22.4944 13.7329 25.3186 12.9216 28.1428 12.9216C36.5146 12.9216 43.2725 19.7161 43.2725 28.1331C43.2725 36.7529 36.5146 43.5474 28.1428 43.5474ZM15.8374 21.9471C15.6357 21.9471 15.4339 22.0485 15.4339 22.2513C14.5261 24.1781 14.0218 26.2063 14.0218 28.3359C14.0218 36.1445 20.3763 42.5333 28.1428 42.5333C35.9094 42.5333 42.2639 36.1445 42.2639 28.3359C42.2639 20.5274 35.9094 14.1385 28.1428 14.1385C25.6212 14.1385 22.8979 14.9498 20.6789 16.2682C20.578 16.3696 20.4771 16.471 20.4771 16.5724C20.4771 16.6738 20.4771 16.8766 20.578 16.978C20.7797 17.2823 21.0823 17.2823 21.2841 17.0794C23.5031 15.7611 25.823 15.0512 28.2437 15.0512C35.5059 15.0512 41.3561 20.933 41.3561 28.2345C41.3561 35.536 35.5059 41.4178 28.2437 41.4178C20.9815 41.4178 15.1313 35.536 15.1313 28.2345C15.1313 26.2063 15.5348 24.2795 16.3417 22.5556C16.3417 22.4542 16.3417 22.3527 16.3417 22.1499C16.3417 22.0485 16.2408 21.9471 16.14 21.9471C15.9383 21.9471 15.9383 21.9471 15.8374 21.9471Z" />
		<path d="M28.1431 52.1672C15.0307 52.1672 4.43994 41.5192 4.43994 28.3359C4.43994 25.6993 4.8434 23.0626 5.75118 20.5274C5.85204 20.0203 6.45723 19.7161 6.96155 19.9189C7.46587 20.1217 7.76847 20.7302 7.56674 21.2373C6.75982 23.5697 6.35636 25.9021 6.35636 28.3359C6.35636 40.4037 16.0393 50.139 28.0422 50.139C40.0451 50.139 49.728 40.4037 49.728 28.3359C49.728 16.2682 40.0451 6.53283 28.1431 6.53283C25.1171 6.53283 22.1921 7.14129 19.3679 8.35821C18.8635 8.56103 18.2584 8.35821 18.0566 7.85116C17.8549 7.34411 18.0566 6.73565 18.561 6.53283C21.5869 5.21451 24.8145 4.50464 28.1431 4.50464C41.2554 4.50464 51.8462 15.1527 51.8462 28.3359C51.8462 41.5192 41.1546 52.1672 28.1431 52.1672Z" />
		<path d="M28.143 52.6744C14.8289 52.6744 3.93555 41.7221 3.93555 28.336C3.93555 25.4965 4.339 22.8599 5.24678 20.3246C5.34765 20.0204 5.54938 19.7162 5.95283 19.5133C6.35629 19.3105 6.75975 19.3105 7.16321 19.4119C7.97012 19.7162 8.37358 20.6289 8.07099 21.3387C7.26407 23.5697 6.86061 25.9022 6.86061 28.2346C6.86061 39.9981 16.3419 49.5306 28.0421 49.5306C39.7424 49.5306 49.2237 39.9981 49.2237 28.2346C49.2237 16.4711 39.7424 6.93853 28.143 6.93853C25.2179 6.93853 22.2929 7.54699 19.5695 8.76391C18.7626 9.06814 17.8548 8.76391 17.5522 7.95263C17.2496 7.14135 17.5522 6.22867 18.3592 5.92444C21.4859 4.60611 24.8145 3.89624 28.143 3.89624C41.4571 3.89624 52.3505 14.8485 52.3505 28.2346C52.3505 41.6207 41.4571 52.6744 28.143 52.6744ZM6.65889 20.3246C6.55802 20.3246 6.55802 20.3246 6.45716 20.426C6.35629 20.426 6.25543 20.5274 6.25543 20.6289C5.34765 23.0627 4.94419 25.5979 4.94419 28.336C4.94419 41.215 15.3332 51.6603 28.143 51.6603C40.9528 51.6603 51.3418 41.215 51.3418 28.336C51.3418 15.457 40.9528 5.01175 28.143 5.01175C24.9153 5.01175 21.7885 5.72162 18.7626 7.03994C18.6617 7.14135 18.5609 7.24276 18.5609 7.34417C18.5609 7.44558 18.5609 7.6484 18.5609 7.74981C18.6617 7.95263 18.9643 8.05404 19.1661 7.95263C22.0911 6.6343 25.0162 6.02585 28.143 6.02585C40.3476 6.02585 50.2323 16.0654 50.2323 28.336C50.2323 40.6066 40.2467 50.6462 28.0421 50.6462C15.8375 50.6462 5.85197 40.6066 5.85197 28.336C5.85197 25.9022 6.25543 23.4683 7.06234 21.0345C7.16321 20.7303 6.96148 20.426 6.75975 20.3246H6.65889Z" />
		<path d="M28.1431 34.9277C24.512 34.9277 21.5869 31.9868 21.5869 28.336C21.5869 27.7276 21.9904 27.3219 22.5956 27.3219C23.2007 27.3219 23.6042 27.7276 23.6042 28.336C23.6042 30.8713 25.6215 32.8995 28.1431 32.8995C30.6647 32.8995 32.682 30.8713 32.682 28.336C32.682 25.8008 30.6647 23.7726 28.1431 23.7726C27.5379 23.7726 27.1345 23.3669 27.1345 22.7585C27.1345 22.15 27.5379 21.7444 28.1431 21.7444C31.7742 21.7444 34.6993 24.6853 34.6993 28.336C34.6993 31.9868 31.7742 34.9277 28.1431 34.9277Z" />
		<path d="M28.143 35.4347C24.2093 35.4347 21.0825 32.291 21.0825 28.336C21.0825 27.4233 21.6877 26.8148 22.5955 26.8148C23.5033 26.8148 24.1085 27.4233 24.1085 28.336C24.1085 30.567 25.924 32.3924 28.143 32.3924C30.362 32.3924 32.1776 30.567 32.1776 28.336C32.1776 26.105 30.362 24.2796 28.143 24.2796C27.2352 24.2796 26.6301 23.6711 26.6301 22.7585C26.6301 21.8458 27.2352 21.2373 28.143 21.2373C32.0767 21.2373 35.2035 24.381 35.2035 28.336C35.2035 32.291 32.0767 35.4347 28.143 35.4347ZM22.5955 27.8289C22.2929 27.8289 22.0912 28.0318 22.0912 28.336C22.0912 31.6825 24.8145 34.4206 28.143 34.4206C31.4716 34.4206 34.1949 31.6825 34.1949 28.336C34.1949 24.9895 31.4716 22.2514 28.143 22.2514C27.8404 22.2514 27.6387 22.4542 27.6387 22.7585C27.6387 23.0627 27.8404 23.2655 28.143 23.2655C30.9672 23.2655 33.1862 25.4965 33.1862 28.336C33.1862 31.1755 30.9672 33.4065 28.143 33.4065C25.3188 33.4065 23.0998 31.1755 23.0998 28.336C23.0998 28.0318 22.8981 27.8289 22.5955 27.8289Z" />
	</symbol>
	<symbol id="media" viewBox="0 0 48 48" fill="currentColor">
		<path d="M14.6487 14.6587L24.2831 37.0416L26.064 26.5965C26.1171 26.3144 26.3331 26.0989 26.6176 26.0442L37.0885 24.2541L14.6487 14.6587ZM24.566 40.0559C24.2969 40.0559 24.0535 39.8952 23.9455 39.6524L12.7462 13.6363C12.6382 13.3798 12.693 13.0977 12.8953 12.896C13.0838 12.7079 13.3804 12.6395 13.6375 12.7472L39.7177 23.919C39.9868 24.0403 40.1497 24.3225 40.1223 24.6183C40.0811 24.9141 39.8652 25.1568 39.5686 25.1962L27.3032 27.2958L25.2258 39.5037C25.1727 39.7995 24.943 40.0286 24.6465 40.0559C24.6191 40.0559 24.5934 40.0559 24.566 40.0559Z" />
		<path d="M24.6759 40.6972H24.5662C24.0451 40.6972 23.5703 40.3894 23.3578 39.9124L23.3544 39.9056L12.1551 13.8877L12.1534 13.886C11.9425 13.3833 12.0522 12.8311 12.4413 12.4447C12.8184 12.0685 13.3994 11.954 13.8862 12.1574L13.8914 12.1591L39.9768 23.3326L39.9819 23.3343C40.5013 23.5685 40.8149 24.1088 40.7618 24.6765L40.7584 24.7056C40.719 24.9842 40.599 25.239 40.4104 25.4408C40.2133 25.6511 39.9494 25.7878 39.6666 25.8289L27.8605 27.8498L25.8585 39.6132V39.6166C25.8088 39.897 25.6751 40.1466 25.4746 40.3416C25.2655 40.5433 24.993 40.6681 24.705 40.6955L24.6759 40.6972ZM24.5336 39.3943C24.5405 39.4063 24.5525 39.4148 24.5662 39.4148H24.585C24.5885 39.4097 24.5919 39.4029 24.5936 39.3926L26.7464 26.7419L39.4746 24.5636C39.4763 24.5602 39.4797 24.5551 39.4815 24.5482C39.4797 24.5312 39.4695 24.5141 39.454 24.5055L13.3892 13.3389C13.3806 13.3355 13.36 13.3406 13.3515 13.3509C13.3326 13.3697 13.3343 13.3748 13.3395 13.3885L24.5336 39.3943ZM24.5525 39.29L23.6938 37.2947L13.4234 13.4381L39.3409 24.5192L26.7361 26.6735C26.707 26.6804 26.7001 26.6975 26.6967 26.7111L24.5525 39.29ZM15.8745 15.8796L24.0143 34.7916L25.4318 26.482L25.4335 26.4769C25.5346 25.9349 25.9528 25.5177 26.4979 25.4134L26.5116 25.4117L34.8382 23.9874L15.8745 15.8796Z" />
		<path d="M15.4849 18.9659H8.49514C8.11806 18.9659 7.81982 18.6701 7.81982 18.2923V8.5345C7.81982 8.15834 8.11635 7.86084 8.49514 7.86084H18.2633C18.6403 7.86084 18.9386 8.15663 18.9386 8.5345V15.466C18.9386 15.8421 18.642 16.1396 18.2633 16.1396C17.8845 16.1396 17.5879 15.8438 17.5879 15.466V9.19447H9.15503V17.6066H15.4694C15.8465 17.6066 16.1447 17.9024 16.1447 18.2803C16.1602 18.6684 15.8636 18.9659 15.4849 18.9659Z" />
		<path d="M15.485 19.6071H8.49532C8.14052 19.6071 7.80971 19.4721 7.5629 19.2241C7.31437 18.9762 7.17725 18.6462 7.17725 18.2923V8.53455C7.17725 8.18063 7.31265 7.85064 7.56118 7.60443C7.80971 7.35651 8.14052 7.21973 8.49532 7.21973H18.2634C18.6182 7.21973 18.949 7.3548 19.1958 7.60272C19.4444 7.85064 19.5815 8.18063 19.5815 8.53455V15.466C19.5815 15.82 19.4461 16.1499 19.1976 16.3962C18.949 16.6441 18.6182 16.7809 18.2634 16.7809C17.9086 16.7809 17.5761 16.6441 17.3293 16.3979C17.0825 16.1517 16.9454 15.82 16.9454 15.466V9.8357H9.79796V16.9655H15.4696C15.8244 16.9655 16.1552 17.1006 16.402 17.3485C16.6471 17.593 16.7842 17.9196 16.7877 18.2684C16.798 18.6257 16.6711 18.9591 16.4277 19.2122C16.1826 19.4669 15.8467 19.6071 15.485 19.6071ZM8.49532 8.50207C8.47303 8.50207 8.46275 8.51233 8.46275 8.53455V18.2923C8.46275 18.3145 8.47303 18.3248 8.49532 18.3248H15.485C15.4953 18.3248 15.5005 18.3231 15.5022 18.3214C15.5022 18.3214 15.5039 18.3162 15.5039 18.3043V18.2786C15.5039 18.2564 15.4936 18.2461 15.4713 18.2461H8.51246V8.55165H18.2309V15.4643C18.2309 15.4883 18.2394 15.4968 18.2634 15.4968C18.2857 15.4968 18.296 15.4865 18.296 15.4643V8.53455C18.296 8.51233 18.2857 8.50207 18.2634 8.50207H8.49532Z" />
		<path d="M5.67577 3.16396C4.25829 3.16396 3.11162 4.30781 3.11162 5.7218V42.2104C3.11162 43.6244 4.25829 44.7682 5.67577 44.7682H42.2543C43.6718 44.7682 44.8185 43.6244 44.8185 42.2104V5.7218C44.8185 4.30781 43.6718 3.16396 42.2543 3.16396H5.67577ZM42.2543 46.1121H5.67577C3.51612 46.1121 1.7627 44.363 1.7627 42.2087V5.7218C1.7627 3.56747 3.51612 1.81836 5.67577 1.81836H42.2543C44.414 1.81836 46.1674 3.56747 46.1674 5.7218V42.2104C46.1674 44.363 44.4123 46.1121 42.2543 46.1121Z" />
		<path d="M42.2545 46.7533H5.67594C3.16321 46.7533 1.12012 44.7153 1.12012 42.2087V5.72186C1.12012 3.21531 3.16321 1.17725 5.67594 1.17725H42.2545C44.7672 1.17725 46.8103 3.21531 46.8103 5.72186V42.2104C46.8103 44.7153 44.7672 46.7533 42.2545 46.7533ZM5.67594 2.45959C3.87281 2.45959 2.40562 3.92316 2.40562 5.72186V42.2087C2.40562 44.0074 3.87281 45.471 5.67594 45.471H42.2545C44.0576 45.471 45.5248 44.0091 45.5248 42.2104V5.72186C45.5248 3.92316 44.0576 2.45959 42.2545 2.45959H5.67594ZM42.2545 45.4094H5.67594C4.81894 45.4094 4.01336 45.076 3.40831 44.4725C2.80327 43.8689 2.46904 43.0653 2.46904 42.2104V5.72186C2.46904 4.86697 2.80327 4.06337 3.40831 3.45981C4.01336 2.85626 4.81894 2.52285 5.67594 2.52285H42.2545C43.1115 2.52285 43.9171 2.85626 44.5221 3.45981C45.1272 4.06337 45.4614 4.86697 45.4614 5.72186V42.2104C45.4614 43.0653 45.1272 43.8689 44.5221 44.4725C43.9171 45.076 43.1115 45.4094 42.2545 45.4094ZM5.67594 3.80519C4.61669 3.80519 3.75454 4.66521 3.75454 5.72186V42.2104C3.75454 43.2671 4.61669 44.1271 5.67594 44.1271H42.2545C43.3138 44.1271 44.1759 43.2671 44.1759 42.2104V5.72186C44.1759 4.66521 43.3138 3.80519 42.2545 3.80519H5.67594Z" />
	</symbol>
	<symbol id="creative" viewBox="0 0 50 54" fill="currentColor">
		<g clip-path="url(#clip0_178_852)">
			<path d="M41.8267 21.4149C41.2623 21.4149 40.8047 20.9457 40.8047 20.3669C40.8047 18.5802 40.4618 16.8351 39.7854 15.1802C39.1296 13.5753 38.1802 12.0999 36.9635 10.7947C34.4894 8.14031 31.0786 6.39409 27.3593 5.87818C26.7999 5.80054 26.4078 5.27265 26.4835 4.69899C26.5592 4.12533 27.0737 3.72321 27.6334 3.80085C31.8101 4.38029 35.6485 6.34982 38.4413 9.34624C39.8312 10.8375 40.9177 12.5277 41.6707 14.3699C42.4524 16.283 42.8489 18.3007 42.8489 20.3669C42.8489 20.9457 42.3913 21.4149 41.8269 21.4149H41.8267Z" />
			<path d="M8.17241 21.4148C7.608 21.4148 7.15039 20.9455 7.15039 20.3667C7.15039 18.268 7.55899 16.2206 8.36492 14.2817C9.14082 12.415 10.2588 10.708 11.6882 9.20792C14.5675 6.18583 18.5042 4.24689 22.7727 3.74852C23.3335 3.68307 23.8399 4.09609 23.9038 4.67125C23.9676 5.24641 23.5648 5.76574 23.004 5.83119C19.2014 6.27524 15.702 7.99493 13.1503 10.6729C11.8988 11.9862 10.9216 13.477 10.2454 15.1037C9.54817 16.7812 9.19464 18.552 9.19464 20.3667C9.19464 20.9455 8.73702 21.4148 8.17262 21.4148H8.17241Z" />
			<path d="M45.1548 5.78878H27.4981C26.9337 5.78878 26.4761 5.3195 26.4761 4.7407C26.4761 4.16191 26.9337 3.69263 27.4981 3.69263H45.1548C45.7192 3.69263 46.1768 4.16191 46.1768 4.7407C46.1768 5.3195 45.7192 5.78878 45.1548 5.78878Z" />
			<path d="M22.8875 5.78878H4.84428C4.27988 5.78878 3.82227 5.3195 3.82227 4.7407C3.82227 4.16191 4.27988 3.69263 4.84428 3.69263H22.8875C23.4519 3.69263 23.9095 4.16191 23.9095 4.7407C23.9095 5.3195 23.4519 5.78878 22.8875 5.78878Z" />
			<path d="M25.1926 8.1529C23.358 8.1529 21.8652 6.62228 21.8652 4.74088C21.8652 2.85947 23.3578 1.32886 25.1926 1.32886C27.0275 1.32886 28.5198 2.85947 28.5198 4.74088C28.5198 6.62228 27.0273 8.1529 25.1926 8.1529ZM25.1926 3.42479C24.4849 3.42479 23.9093 4.01514 23.9093 4.74066C23.9093 5.46619 24.4849 6.05653 25.1926 6.05653C25.9003 6.05653 26.4758 5.46619 26.4758 4.74066C26.4758 4.01514 25.9001 3.42479 25.1926 3.42479Z" />
			<path d="M41.8264 24.9458C40.3136 24.9458 39.083 23.6836 39.083 22.1324C39.083 20.5813 40.3138 19.3191 41.8264 19.3191C43.339 19.3191 44.5698 20.5813 44.5698 22.1324C44.5698 23.6836 43.339 24.9458 41.8264 24.9458ZM41.8264 21.415C41.4407 21.415 41.127 21.7367 41.127 22.1322C41.127 22.5277 41.4407 22.8494 41.8264 22.8494C42.2121 22.8494 42.5258 22.5277 42.5258 22.1322C42.5258 21.7367 42.2121 21.415 41.8264 21.415Z" />
			<path d="M8.1721 24.9423C6.6593 24.9423 5.42871 23.6802 5.42871 22.129C5.42871 20.5779 6.65951 19.3157 8.1721 19.3157C9.68469 19.3157 10.9155 20.5779 10.9155 22.129C10.9155 23.6802 9.68469 24.9423 8.1721 24.9423ZM8.1721 21.4116C7.78644 21.4116 7.47275 21.7333 7.47275 22.1288C7.47275 22.5243 7.78644 22.846 8.1721 22.846C8.55776 22.846 8.87145 22.5243 8.87145 22.1288C8.87145 21.7333 8.55776 21.4116 8.1721 21.4116Z" />
			<path d="M47.9085 7.23573H45.0865C44.5221 7.23573 44.0645 6.76645 44.0645 6.18765V3.29368C44.0645 2.71489 44.5221 2.24561 45.0865 2.24561H47.9085C48.4729 2.24561 48.9305 2.71489 48.9305 3.29368V6.18765C48.9305 6.76645 48.4729 7.23573 47.9085 7.23573ZM46.1085 5.13958H46.8865V4.34176H46.1085V5.13958Z" />
			<path d="M4.84404 7.23573H2.02202C1.45761 7.23573 1 6.76645 1 6.18765V3.29368C1 2.71489 1.45761 2.24561 2.02202 2.24561H4.84404C5.40844 2.24561 5.86606 2.71489 5.86606 3.29368V6.18765C5.86606 6.76645 5.40844 7.23573 4.84404 7.23573ZM3.04404 5.13958H3.82202V4.34176H3.04404V5.13958Z" />
			<path d="M32.0784 48.2824H18.1514C17.8039 48.2824 17.4794 48.1038 17.2912 47.8043C17.1033 47.5053 17.0752 47.1314 17.218 46.8074C17.2385 46.7593 17.9693 45.0171 17.9015 42.9402C17.8631 41.7657 17.5778 40.7076 17.0533 39.7951C16.3935 38.6476 15.3363 37.7032 13.9111 36.9882C13.4218 36.7427 13.2061 36.1468 13.4209 35.6332L24.1162 10.0843C24.2768 9.70082 24.6437 9.45163 25.0506 9.44971C25.0523 9.44971 25.0538 9.44971 25.0554 9.44971C25.4605 9.44971 25.8274 9.69504 25.9907 10.0756L36.9597 35.6246C37.0769 35.8976 37.0794 36.2075 36.959 36.4789C36.8391 36.7497 36.6168 36.9542 36.3402 37.0436C36.3012 37.0573 35.6957 37.2735 34.9694 37.7753C34.0044 38.4422 33.2835 39.279 32.827 40.2629C32.0033 42.038 32.073 44.2589 33.0341 46.8636C33.153 47.1855 33.11 47.547 32.9191 47.8302C32.7283 48.1134 32.414 48.2826 32.0782 48.2826L32.0784 48.2824ZM19.566 46.1862H30.668C30.356 45.0316 30.2035 43.9284 30.2143 42.8927C30.2277 41.6066 30.4907 40.4084 30.9961 39.3312C31.9672 37.2616 33.611 36.0922 34.6795 35.5149L25.0673 13.1263L15.6677 35.5806C19.0796 37.6645 19.8913 40.6967 19.947 42.953C19.9781 44.2082 19.7802 45.3441 19.566 46.1865V46.1862Z" />
			<path d="M25.0554 32.31C23.5426 32.31 22.312 31.0478 22.312 29.4967C22.312 27.9455 23.5428 26.6833 25.0554 26.6833C26.568 26.6833 27.7988 27.9455 27.7988 29.4967C27.7988 31.0478 26.568 32.31 25.0554 32.31ZM25.0554 28.7793C24.6697 28.7793 24.356 29.101 24.356 29.4965C24.356 29.892 24.6697 30.2137 25.0554 30.2137C25.4411 30.2137 25.7548 29.892 25.7548 29.4965C25.7548 29.101 25.4411 28.7793 25.0554 28.7793Z" />
			<path d="M34.301 53.3436H16.084C15.5196 53.3436 15.062 52.8743 15.062 52.2955V47.2344C15.062 46.6556 15.5196 46.1863 16.084 46.1863H34.301C34.8654 46.1863 35.323 46.6556 35.323 47.2344V52.2955C35.323 52.8743 34.8654 53.3436 34.301 53.3436ZM17.1063 51.2474H33.2792V48.2824H17.1063V51.2474Z" />
			<path d="M25.0552 28.8051C24.4908 28.8051 24.0332 28.3358 24.0332 27.757V10.4978C24.0332 9.91899 24.4908 9.44971 25.0552 9.44971C25.6196 9.44971 26.0772 9.91899 26.0772 10.4978V27.757C26.0772 28.3358 25.6196 28.8051 25.0552 28.8051Z" />
		</g>
	</symbol>
	<symbol id="development" viewBox="0 0 49 50" fill="currentColor">
		<path d="M24.6845 47.2998C24.0798 47.2998 23.5831 46.8168 23.5739 46.2144C23.5646 45.606 24.0551 45.1046 24.6691 45.0954C29.8397 45.0129 34.7358 43.0072 38.4534 39.4453C38.8976 39.0234 39.598 39.0356 40.0268 39.4728C40.4556 39.91 40.4433 40.6071 40.0021 41.0321C35.8742 44.9854 30.4413 47.2112 24.7061 47.3029H24.6876L24.6845 47.2998Z" />
		<path d="M23.9872 4.83505C23.3826 4.83505 22.8858 4.35198 22.8766 3.74967C22.8673 3.14124 23.3579 2.63982 23.9718 2.63065L24.0736 2.62453C24.16 2.61842 24.2495 2.6123 24.3389 2.6123C24.9529 2.6123 25.4496 3.10455 25.4496 3.71298C25.4496 4.3214 24.9529 4.81365 24.3389 4.81365L24.231 4.81976C24.1569 4.82588 24.0798 4.82894 24.0027 4.83199C23.9965 4.83199 23.9903 4.83199 23.9872 4.83199V4.83505Z" />
		<path d="M2.89433 26.069C2.2804 26.069 1.78369 25.5768 1.78369 24.9684C1.78369 18.5508 4.59115 12.4299 9.48415 8.17701C9.94691 7.77343 10.6472 7.82234 11.0545 8.2779C11.4586 8.73651 11.4154 9.43055 10.9527 9.83413C6.54094 13.6712 4.01115 19.1868 4.01115 24.9684C4.01115 25.5768 3.51444 26.069 2.9005 26.069H2.89433Z" />
		<path d="M23.9872 47.2995H23.9687C18.2303 47.2077 12.7975 44.9819 8.67265 41.0287C8.23148 40.6068 8.21913 39.9066 8.64488 39.4694C9.07063 39.0322 9.77403 39.02 10.2183 39.4419C13.9359 43.0038 18.8319 45.0125 24.0026 45.092C24.6165 45.1012 25.1071 45.6026 25.0978 46.211C25.0886 46.8133 24.5919 47.2964 23.9872 47.2964V47.2995Z" />
		<path d="M9.44728 41.3374C9.16962 41.3374 8.89196 41.2335 8.67292 41.0286C4.23035 36.7727 1.78076 31.0675 1.78076 24.9649C1.78076 24.3565 2.27747 23.8643 2.8914 23.8643C3.50534 23.8643 4.00205 24.3565 4.00205 24.9649C4.00205 30.4652 6.20791 35.6048 10.2155 39.4418C10.6566 39.8637 10.669 40.5608 10.2432 41.0011C10.0242 41.2243 9.7342 41.3374 9.44419 41.3374H9.44728Z" />
		<path d="M24.3361 47.3178C24.2435 47.3178 24.1541 47.3117 24.0646 47.3056L23.9628 47.2995C23.3488 47.2842 22.8614 46.7797 22.8768 46.1744C22.8892 45.5751 23.3859 45.0981 23.9875 45.0981H24.0121C24.0862 45.0981 24.1571 45.1043 24.2281 45.1104L24.3392 45.1165C24.9531 45.1165 25.4498 45.6087 25.4498 46.2172C25.4498 46.8256 24.9531 47.3178 24.3361 47.3178Z" />
		<path d="M24.3357 47.3178C23.7218 47.3178 23.2251 46.8256 23.2251 46.2172C23.2251 45.6087 23.7218 45.1165 24.3357 45.1165L24.4437 45.1104C24.5147 45.1043 24.5856 45.1012 24.6597 45.0981C25.2397 45.0981 25.7827 45.5659 25.795 46.1744C25.8073 46.7828 25.3199 47.2873 24.709 47.2995L24.6072 47.3056C24.5178 47.3117 24.4252 47.3178 24.3357 47.3178Z" />
		<path d="M38.4564 10.1028C38.1973 10.1028 37.935 10.0142 37.7252 9.82767C34.1095 6.68158 29.4725 4.90828 24.669 4.83184C24.0551 4.82267 23.5645 4.32125 23.5769 3.71283C23.5861 3.1044 24.0767 2.63967 24.706 2.62744C30.034 2.71305 35.18 4.68203 39.1938 8.17055C39.6565 8.57107 39.6997 9.26816 39.2956 9.72677C39.0765 9.97443 38.768 10.1028 38.4595 10.1028H38.4564Z" />
		<path d="M10.2156 10.1032C9.90704 10.1032 9.59853 9.97786 9.37949 9.72715C8.97534 9.27159 9.01853 8.5745 9.4813 8.17092C13.495 4.6824 18.6379 2.71342 23.969 2.62782C24.6107 2.60336 25.0889 3.10172 25.0982 3.7132C25.1074 4.32163 24.6169 4.82305 24.006 4.83222C19.2025 4.90865 14.5656 6.68196 10.9498 9.82804C10.7369 10.0115 10.4778 10.1032 10.2186 10.1032H10.2156Z" />
		<path d="M24.6844 4.83492H24.6689C24.5918 4.83492 24.5178 4.82881 24.4406 4.82269L24.3357 4.81658C23.7218 4.81658 23.2251 4.32433 23.2251 3.71591C23.2251 3.10748 23.7218 2.61523 24.3357 2.61523C24.4252 2.61523 24.5116 2.62135 24.6011 2.62746L24.7029 2.63358C25.3168 2.64275 25.8073 3.14417 25.7981 3.7526C25.7888 4.35491 25.2921 4.83798 24.6874 4.83798L24.6844 4.83492Z" />
		<path d="M39.2279 41.3374C38.9379 41.3374 38.6479 41.2243 38.4288 41.0011C38 40.5639 38.0124 39.8668 38.4535 39.4418C42.4611 35.6048 44.667 30.4622 44.667 24.9649C44.667 19.1803 42.1372 13.6647 37.7254 9.83071C37.2627 9.43019 37.2195 8.7331 37.6236 8.27448C38.0278 7.81893 38.7312 7.77001 39.1909 8.17359C44.0839 12.4265 46.8913 18.5474 46.8913 24.9649C46.8913 31.3825 44.4448 36.7727 40.0023 41.0286C39.7863 41.2365 39.5055 41.3374 39.2279 41.3374Z" />
		<path d="M16.5953 13.6315C16.4133 13.6315 16.2282 13.5856 16.0554 13.4939C15.5186 13.1973 15.3243 12.5277 15.6235 11.9957C17.5795 8.5011 20.3715 5.42228 23.6942 3.09558C24.194 2.74398 24.8912 2.86016 25.2429 3.35852C25.5977 3.85382 25.4774 4.54174 24.9776 4.89335C21.9264 7.03354 19.3627 9.8586 17.5671 13.0658C17.3635 13.4297 16.984 13.6315 16.5953 13.6315Z" />
		<path d="M24.3361 5.09503C23.9875 5.09503 23.645 4.93299 23.426 4.62725C23.0712 4.12889 23.1915 3.44402 23.6944 3.09242L23.8178 3.0007C23.8949 2.93955 23.972 2.88146 24.0553 2.82642C24.5613 2.48094 25.2524 2.60935 25.601 3.11076C25.9496 3.61218 25.82 4.29704 25.3172 4.64253C25.2709 4.67311 25.2277 4.70674 25.1814 4.74343C25.1135 4.7954 25.0457 4.84738 24.9778 4.89324C24.7834 5.03082 24.5582 5.09503 24.3361 5.09503Z" />
		<path d="M16.0245 37.3815C15.6142 37.3815 15.2193 37.1552 15.0249 36.7669C13.1739 33.0399 12.2329 29.0683 12.2329 24.9683C12.2329 24.3599 12.7296 23.8677 13.3436 23.8677C13.9575 23.8677 14.4542 24.3599 14.4542 24.9683C14.4542 28.729 15.3149 32.3734 17.0148 35.7947C17.2863 36.342 17.0611 37.0024 16.5089 37.2714C16.3515 37.3478 16.1849 37.3845 16.0183 37.3845L16.0245 37.3815Z" />
		<path d="M24.6843 47.2997C24.4684 47.2997 24.2524 47.2385 24.0611 47.1101C23.9748 47.052 23.8915 46.9909 23.8112 46.9267L23.694 46.838C23.1911 46.4864 23.0739 45.7985 23.4256 45.3032C23.7804 44.8079 24.4745 44.6887 24.9743 45.0372C25.0422 45.0831 25.107 45.135 25.1718 45.184C25.215 45.2176 25.2582 45.2512 25.3044 45.2818C25.8135 45.6212 25.9461 46.306 25.6037 46.8105C25.3877 47.1254 25.0391 47.2936 24.6812 47.2936L24.6843 47.2997Z" />
		<path d="M24.3359 47.0399C24.1137 47.0399 23.8885 46.9757 23.6942 46.8381C20.0167 44.2607 17.021 40.7783 15.0281 36.7639C14.7566 36.2166 14.9849 35.5562 15.534 35.2902C16.0863 35.0212 16.7526 35.2474 17.0241 35.7916C18.8536 39.4758 21.6024 42.6739 24.9806 45.0403C25.4804 45.3919 25.6008 46.0799 25.246 46.5752C25.03 46.8778 24.6845 47.0399 24.3359 47.0399Z" />
		<path d="M13.3499 26.0689C12.736 26.0689 12.2393 25.5767 12.2393 24.9682C12.2393 20.4402 13.4085 15.955 15.6267 11.9956C15.9229 11.4636 16.6016 11.271 17.1384 11.5676C17.6752 11.8641 17.8696 12.5337 17.5703 13.0657C15.5372 16.6979 14.4636 20.8132 14.4636 24.9682C14.4636 25.5767 13.9669 26.0689 13.353 26.0689H13.3499Z" />
		<path d="M16.5954 13.6311C16.4689 13.6311 16.3425 13.6097 16.216 13.5638C13.7756 12.6863 11.5266 11.442 9.52125 9.86434C9.03998 9.48522 8.95976 8.79118 9.34232 8.31728C9.72487 7.84032 10.4252 7.76083 10.9065 8.13995C12.7205 9.56777 14.7629 10.696 16.9749 11.4909C17.5518 11.6988 17.8511 12.3317 17.6413 12.9034C17.4778 13.3529 17.052 13.6311 16.5954 13.6311Z" />
		<path d="M32.0763 13.6311C31.6227 13.6311 31.1939 13.3529 31.0304 12.9034C30.8206 12.3317 31.1199 11.6988 31.6968 11.4909C33.9088 10.696 35.9512 9.56777 37.7652 8.13995C38.2465 7.76083 38.9468 7.84032 39.3294 8.31728C39.7119 8.79424 39.6317 9.48522 39.1504 9.86434C37.1482 11.442 34.8961 12.6863 32.4557 13.5638C32.3292 13.6097 32.2027 13.6311 32.0763 13.6311Z" />
		<path d="M24.3357 14.998C23.7218 14.998 23.2251 14.5057 23.2251 13.8973C23.2251 13.2889 23.7218 12.7966 24.3357 12.7966C26.8162 12.7966 29.2904 12.3594 31.6968 11.4942C32.2737 11.2863 32.9124 11.5828 33.1191 12.1546C33.3289 12.7263 33.0296 13.3592 32.4527 13.5671C29.8026 14.5179 27.0722 15.001 24.3327 15.001L24.3357 14.998Z" />
		<path d="M24.3359 14.9981C21.5963 14.9981 18.8659 14.515 16.2158 13.5642C15.6389 13.3563 15.3397 12.7234 15.5494 12.1516C15.7592 11.5799 16.3979 11.2833 16.9748 11.4912C19.3812 12.3565 21.8585 12.7937 24.3359 12.7937C24.9498 12.7937 25.4465 13.2859 25.4465 13.8944C25.4465 14.5028 24.9498 14.995 24.3359 14.995V14.9981Z" />
		<path d="M39.2249 41.3375C38.9657 41.3375 38.7066 41.2488 38.4968 41.0684C36.6365 39.4633 34.5293 38.1975 32.2402 37.3047C31.6694 37.0815 31.3887 36.4425 31.6139 35.8769C31.8391 35.3113 32.4839 35.0331 33.0546 35.2563C35.5813 36.2407 37.9044 37.638 39.956 39.4082C40.4188 39.8088 40.4682 40.5028 40.0671 40.9614C39.8481 41.2121 39.5365 41.3405 39.228 41.3405L39.2249 41.3375Z" />
		<path d="M32.647 37.3814C32.5113 37.3814 32.3725 37.3569 32.2398 37.305C29.6884 36.3113 27.029 35.8068 24.3357 35.8068C23.7218 35.8068 23.2251 35.3146 23.2251 34.7061C23.2251 34.0977 23.7218 33.6055 24.3357 33.6055C27.3098 33.6055 30.2437 34.1619 33.0543 35.2565C33.625 35.4797 33.9058 36.1187 33.6806 36.6843C33.5078 37.1184 33.0882 37.3844 32.647 37.3844V37.3814Z" />
		<path d="M16.0248 37.3815C15.5806 37.3815 15.161 37.1155 14.9913 36.6814C14.7661 36.1157 15.0469 35.4737 15.6176 35.2535C18.4282 34.1559 21.3621 33.6025 24.3362 33.6025C24.9501 33.6025 25.4468 34.0948 25.4468 34.7032C25.4468 35.3116 24.9501 35.8039 24.3362 35.8039C21.6428 35.8039 18.9835 36.3084 16.4321 37.302C16.2994 37.354 16.1606 37.3785 16.0248 37.3785V37.3815Z" />
		<path d="M9.44691 41.3376C9.13532 41.3376 8.82681 41.2092 8.60776 40.9585C8.20361 40.4999 8.25297 39.8028 8.71574 39.4053C10.7673 37.6381 13.0904 36.2409 15.6172 35.2533C16.1879 35.0301 16.8358 35.3084 17.0579 35.874C17.2831 36.4396 17.0024 37.0817 16.4316 37.3018C14.1394 38.1946 12.0353 39.4634 10.175 41.0655C9.96521 41.2459 9.70298 41.3345 9.44691 41.3345V41.3376Z" />
		<path d="M35.3218 26.069C34.7079 26.069 34.2112 25.5768 34.2112 24.9683C34.2112 20.8133 33.1376 16.698 31.1045 13.0658C30.8052 12.5338 30.9996 11.8642 31.5364 11.5677C32.0732 11.2742 32.7519 11.4637 33.0481 11.9957C35.2632 15.9551 36.4356 20.4403 36.4356 24.9683C36.4356 25.5768 35.9388 26.069 35.3249 26.069H35.3218Z" />
		<path d="M24.3361 5.0948C24.1171 5.0948 23.8949 5.03059 23.7037 4.89606C23.6296 4.84409 23.5587 4.78905 23.4846 4.73402C23.4445 4.70039 23.4013 4.66981 23.3581 4.63924C22.8522 4.29375 22.7257 3.60889 23.0743 3.10747C23.4229 2.60605 24.114 2.4807 24.6199 2.82313C24.6971 2.87816 24.7742 2.9332 24.8482 2.99129L24.9716 3.08301C25.4745 3.43156 25.601 4.11642 25.2493 4.61784C25.0333 4.92664 24.6878 5.09174 24.3361 5.09174V5.0948Z" />
		<path d="M23.9874 47.2994C23.6295 47.2994 23.2809 47.1313 23.0649 46.8164C22.7194 46.3119 22.8551 45.627 23.3642 45.2877C23.4074 45.2571 23.4506 45.2265 23.4907 45.1929C23.5616 45.1409 23.6295 45.0859 23.7005 45.037C24.2064 44.6884 24.8975 44.8138 25.2492 45.3121C25.5978 45.8105 25.4744 46.4984 24.9715 46.8469L24.8512 46.9356C24.771 46.9968 24.6908 47.0579 24.6075 47.1129C24.4162 47.2414 24.2002 47.3025 23.9843 47.3025L23.9874 47.2994Z" />
		<path d="M32.6442 37.3811C32.4776 37.3811 32.311 37.3444 32.1537 37.268C31.6015 36.9989 31.3763 36.3385 31.6477 35.7913C33.3476 32.37 34.2084 28.7286 34.2084 24.9649C34.2084 24.3565 34.7051 23.8643 35.319 23.8643C35.933 23.8643 36.4297 24.3565 36.4297 24.9649C36.4297 29.068 35.4918 33.0365 33.6376 36.7635C33.4464 37.1518 33.0515 37.3781 32.6411 37.3781L32.6442 37.3811Z" />
		<path d="M24.3358 47.0399C23.9872 47.0399 23.6447 46.8779 23.4257 46.5752C23.0709 46.0799 23.1912 45.392 23.691 45.0404C27.0661 42.6739 29.818 39.4759 31.6444 35.7917C31.9159 35.2444 32.5823 35.0212 33.1345 35.2903C33.6868 35.5593 33.912 36.2197 33.6405 36.7639C31.6475 40.7753 28.6519 44.2607 24.9744 46.8381C24.78 46.9757 24.5548 47.0399 24.3327 47.0399H24.3358Z" />
		<path d="M32.0767 13.6315C31.6849 13.6315 31.3054 13.4266 31.1049 13.0658C29.3124 9.86166 26.7487 7.03354 23.6944 4.89335C23.1946 4.54174 23.0743 3.85382 23.4291 3.35852C23.7839 2.86016 24.478 2.74398 24.9778 3.09558C28.3036 5.42534 31.0925 8.50416 33.0485 11.9957C33.3477 12.5277 33.1534 13.1973 32.6166 13.4939C32.4469 13.5887 32.2618 13.6315 32.0767 13.6315Z" />
		<path d="M13.3498 26.069H2.89433C2.2804 26.069 1.78369 25.5768 1.78369 24.9683C1.78369 24.3599 2.2804 23.8677 2.89433 23.8677H13.3498C13.9637 23.8677 14.4604 24.3599 14.4604 24.9683C14.4604 25.5768 13.9637 26.069 13.3498 26.069Z" />
		<path d="M35.3218 26.069H24.3357C23.7218 26.069 23.2251 25.5768 23.2251 24.9683C23.2251 24.3599 23.7218 23.8677 24.3357 23.8677H35.3218C35.9358 23.8677 36.4325 24.3599 36.4325 24.9683C36.4325 25.5768 35.9358 26.069 35.3218 26.069Z" />
		<path d="M24.3362 26.069H13.347C12.733 26.069 12.2363 25.5768 12.2363 24.9683C12.2363 24.3599 12.733 23.8677 13.347 23.8677H24.3362C24.9501 23.8677 25.4468 24.3599 25.4468 24.9683C25.4468 25.5768 24.9501 26.069 24.3362 26.069Z" />
		<path d="M45.1451 26.069H35.3221C34.7081 26.069 34.2114 25.5768 34.2114 24.9683C34.2114 24.3599 34.7081 23.8677 35.3221 23.8677H45.1451C45.759 23.8677 46.2557 24.3599 46.2557 24.9683C46.2557 25.5768 45.759 26.069 45.1451 26.069Z" />
		<path d="M24.3357 14.998C23.7218 14.998 23.2251 14.5058 23.2251 13.8973V3.9913C23.2251 3.38287 23.7218 2.89062 24.3357 2.89062C24.9497 2.89062 25.4464 3.38287 25.4464 3.9913V13.8973C25.4464 14.5058 24.9497 14.998 24.3357 14.998Z" />
		<path d="M24.3357 26.069C23.7218 26.069 23.2251 25.5768 23.2251 24.9683V13.9005C23.2251 13.292 23.7218 12.7998 24.3357 12.7998C24.9497 12.7998 25.4464 13.292 25.4464 13.9005V24.9683C25.4464 25.5768 24.9497 26.069 24.3357 26.069Z" />
		<path d="M24.3357 47.0399C23.7218 47.0399 23.2251 46.5477 23.2251 45.9392V34.7032C23.2251 34.0948 23.7218 33.6025 24.3357 33.6025C24.9497 33.6025 25.4464 34.0948 25.4464 34.7032V45.9392C25.4464 46.5477 24.9497 47.0399 24.3357 47.0399Z" />
		<path d="M24.3357 5.09516C23.7218 5.09516 23.2251 4.60292 23.2251 3.99449V3.71932C23.2251 3.1109 23.7218 2.61865 24.3357 2.61865C24.9497 2.61865 25.4464 3.1109 25.4464 3.71932V3.99449C25.4464 4.60292 24.9497 5.09516 24.3357 5.09516Z" />
		<path d="M24.3357 35.8035C23.7218 35.8035 23.2251 35.3112 23.2251 34.7028V24.9649C23.2251 24.3565 23.7218 23.8643 24.3357 23.8643C24.9497 23.8643 25.4464 24.3565 25.4464 24.9649V34.7028C25.4464 35.3112 24.9497 35.8035 24.3357 35.8035Z" />
		<path d="M24.3357 47.3178C23.7218 47.3178 23.2251 46.8256 23.2251 46.2171V45.942C23.2251 45.3336 23.7218 44.8413 24.3357 44.8413C24.9497 44.8413 25.4464 45.3336 25.4464 45.942V46.2171C25.4464 46.8256 24.9497 47.3178 24.3357 47.3178Z" />
	</symbol>
	<symbol id="production" viewBox="0 0 51 38" fill="currentColor">
		<path d="M33.2042 34.6435H5.78374C3.14575 34.6435 1 32.4296 1 29.7078V8.22241C1 5.50057 3.14575 3.28662 5.78374 3.28662H33.2037C35.8417 3.28662 37.9874 5.50057 37.9874 8.22241V11.2036L43.2224 7.00047C44.4362 6.02603 46.0486 5.85346 47.4302 6.55045C48.8118 7.24744 49.6701 8.66623 49.6701 10.2529V27.6778C49.6701 29.2645 48.8118 30.6832 47.4302 31.3802C46.0486 32.0772 44.4362 31.9047 43.2224 30.9302L37.9874 26.7271V29.7083C37.9874 32.4301 35.8417 34.6441 33.2037 34.6441L33.2042 34.6435ZM5.78374 6.08699C4.64251 6.08699 3.71411 7.04491 3.71411 8.22241V29.7078C3.71411 30.8853 4.64251 31.8432 5.78374 31.8432H33.2037C34.3449 31.8432 35.2733 30.8853 35.2733 29.7078V20.9987L44.8889 28.7199C45.284 29.0371 45.7882 29.0909 46.2379 28.864C46.6876 28.6372 46.956 28.1934 46.956 27.6772V10.2529C46.956 9.73678 46.6876 9.29295 46.2379 9.06613C45.7882 8.83931 45.284 8.89305 44.8889 9.21029L35.2733 16.9315V8.22241C35.2733 7.04491 34.3449 6.08699 33.2037 6.08699H5.78374Z" />
	</symbol>
	<symbol id="recruitedge" viewBox="0 0 32 32" fill="currentColor">
		<path d="m21.98 17.156c.487-.174.814-.639.814-1.156s-.327-.982-.812-1.156l-2.23-.804c-2.202-.793-3.92-2.512-4.714-4.714l-.804-2.23c-.175-.485-.639-.812-1.154-.812h-.001c-.516 0-.98.326-1.156.812l-.803 2.23c-.794 2.203-2.512 3.921-4.715 4.714l-2.228.804c-.487.175-.814.639-.814 1.156s.327.981.812 1.156l2.23.804c2.202.793 3.92 2.511 4.714 4.714l.804 2.231c.175.485.64.811 1.156.811h.001c.516 0 .98-.327 1.154-.812l.804-2.23c.793-2.202 2.512-3.92 4.714-4.714zm-2.906-1.078c-2.765.996-4.922 3.153-5.918 5.918l-.078.216-.078-.216c-.997-2.765-3.154-4.922-5.918-5.918l-.215-.078.216-.078c2.765-.996 4.922-3.153 5.918-5.918l.078-.216.078.216c.996 2.765 3.153 4.922 5.917 5.918l.216.078z"/><path d="m18.548 7.463 1.129.407c.977.352 1.738 1.114 2.09 2.09l.406 1.128c.159.442.581.739 1.05.739s.892-.297 1.05-.738l.407-1.129c.352-.977 1.114-1.739 2.09-2.09l1.13-.407c.439-.159.736-.58.737-1.047s-.293-.89-.737-1.052l-1.13-.407c-.976-.352-1.738-1.114-2.09-2.09l-.407-1.129c-.159-.442-.58-.738-1.049-.738-.47 0-.892.297-1.05.738l-.407 1.129c-.352.977-1.114 1.738-2.09 2.09l-1.132.408c-.44.16-.736.583-.735 1.051s.298.889.738 1.047zm4.676-3.008c.474.812 1.147 1.485 1.958 1.958-.812.474-1.485 1.147-1.958 1.958-.474-.811-1.147-1.485-1.958-1.958.811-.474 1.484-1.147 1.958-1.958z"/><path d="m27.899 24.537-1.129-.407c-.976-.352-1.738-1.114-2.09-2.09l-.407-1.129c-.159-.441-.581-.738-1.05-.738-.47 0-.892.297-1.05.738l-.407 1.129c-.352.977-1.114 1.739-2.09 2.09l-1.128.406c-.441.158-.738.58-.739 1.048s.294.891.738 1.052l1.129.407c.977.352 1.739 1.113 2.09 2.09l.406 1.128c.16.442.582.739 1.052.739s.892-.297 1.05-.738l.407-1.129c.352-.976 1.114-1.738 2.09-2.09l1.134-.408c.439-.161.734-.583.733-1.051s-.299-.888-.739-1.047zm-4.675 3.008c-.474-.812-1.147-1.485-1.958-1.958.811-.474 1.485-1.147 1.958-1.958.474.811 1.147 1.485 1.958 1.958-.811.474-1.485 1.147-1.958 1.958z"/>
	</symbol>
	<symbol id="logo" viewBox="0 0 593.56 124.4">
		<path d="M112.75.32v58.11c0 29.14-23.62 52.76-52.75 52.76V71.23c6.57-2.08 11.34-8.23 11.34-15.48 0-6.7-4.09-12.47-9.9-14.94C66.96 17.59 87.84.32 112.75.32Z" style="fill: var(--color-logo-primary);" />
		<path d="M120 .32v110.87h52.75V53.07C172.75 23.94 149.13.32 120 .32" style="fill: var(--color-logo-secondary);" />
		<path d="M52.76.32v39.37c-7.84 1.14-13.88 7.91-13.88 16.06s6.04 14.92 13.88 16.06v39.38C23.62 111.19 0 87.57 0 58.43v-5.36C0 23.94 23.62.32 52.76.32Z" style="fill: var(--color-logo-primary);" />
		<path d="M241.76 79.06c-1.84-1.1-3.82-1.65-5.92-1.65s-3.99.4-5.53 1.18c-1.54.79-2.78 1.71-3.72 2.76-.94 1.05-1.64 1.95-2.07 2.7-1.05-2.11-2.51-3.74-4.38-4.9a11.289 11.289 0 0 0-6.09-1.74c-2.68 0-4.83.59-6.45 1.78s-2.81 2.44-3.55 3.75v-5h-4.94v32.91h4.94V91.17c0-2.94.88-5.22 2.63-6.84s3.84-2.44 6.25-2.44 4.27.85 5.83 2.53c1.56 1.69 2.34 3.91 2.34 6.68v19.74h4.94V91.16c0-2.94.88-5.22 2.63-6.84 1.76-1.62 3.84-2.44 6.25-2.44s4.27.85 5.82 2.53c1.56 1.69 2.34 3.91 2.34 6.68v19.74h4.93V90.95c0-2.76-.58-5.17-1.74-7.21-1.16-2.04-2.66-3.61-4.51-4.71ZM281.9 83.27a13.37 13.37 0 0 0-4.77-4.28c-1.95-1.05-4.29-1.58-7.01-1.58-3.2 0-6 .76-8.39 2.27-2.39 1.51-4.24 3.55-5.56 6.12-1.32 2.57-1.97 5.43-1.97 8.59s.66 5.97 1.97 8.56c1.32 2.59 3.17 4.64 5.56 6.15 2.39 1.51 5.19 2.27 8.39 2.27 2.72 0 5.06-.53 7.01-1.58 1.95-1.05 3.54-2.46 4.77-4.21v5.27h4.94V77.94h-4.94v5.33Zm-1.05 17.34c-.88 1.91-2.16 3.43-3.85 4.57-1.69 1.14-3.76 1.71-6.22 1.71s-4.5-.57-6.25-1.71c-1.76-1.14-3.09-2.66-4.01-4.57-.92-1.91-1.38-3.98-1.38-6.22s.46-4.37 1.38-6.25c.92-1.89 2.26-3.4 4.01-4.54 1.75-1.14 3.84-1.71 6.25-1.71s4.53.57 6.22 1.71c1.69 1.14 2.97 2.66 3.85 4.54.88 1.89 1.32 3.97 1.32 6.25s-.44 4.31-1.32 6.22ZM307.2 78.43c-1.47.68-2.69 1.5-3.65 2.47-.97.97-1.7 1.92-2.2 2.86-.51.94-.85 1.7-1.02 2.27v-8.1h-4.94v32.91h4.94V96.36c0-2.41.47-4.68 1.41-6.81s2.3-3.86 4.08-5.2c1.78-1.34 3.89-2.01 6.35-2.01h.59V77.4h-.33c-2.02 0-3.76.34-5.23 1.02ZM345.8 77.94h-6.91l-15.86 16.32V64.78h-4.94v46.07h4.94v-10.4l6.19-6.12 11.51 16.52h6.06l-14.22-19.94 13.23-12.97zM372.49 79.68c-2.43-1.51-5.34-2.27-8.72-2.27s-6.23.76-8.69 2.27c-2.46 1.51-4.34 3.55-5.66 6.12-1.32 2.57-1.97 5.43-1.97 8.59s.69 5.97 2.07 8.56c1.38 2.59 3.32 4.64 5.82 6.15 2.5 1.51 5.42 2.27 8.75 2.27 3.9 0 7.1-.93 9.57-2.8 2.48-1.86 4.29-4.27 5.43-7.21h-5.4c-.88 1.62-2.11 2.95-3.68 3.98-1.58 1.03-3.53 1.55-5.86 1.55-2.19 0-4.12-.47-5.79-1.41a10.81 10.81 0 0 1-3.98-3.82c-.99-1.6-1.61-3.37-1.88-5.3h27.57v-1.97c0-3.16-.66-6.02-1.97-8.59-1.32-2.57-3.19-4.61-5.63-6.12Zm-19.91 12.08c.48-2.81 1.68-5.16 3.59-7.04 1.91-1.89 4.44-2.83 7.6-2.83s5.7.94 7.63 2.83c1.93 1.89 3.11 4.23 3.55 7.04h-22.38ZM394.63 66.16h-4.93v11.78h-6.72v4.34h6.72v28.57h4.93V82.28h7.57v-4.34h-7.57V66.16zM407.6 77.94h4.94v32.91h-4.94zM407.4 65.96h5.33v6.45h-5.33zM443.36 79.03c-2-1.07-4.14-1.61-6.42-1.61-2.68 0-4.87.55-6.58 1.65-1.71 1.1-3.16 2.43-4.34 4.02v-5.13h-4.94v32.91h4.94V91.92c0-1.97.45-3.72 1.35-5.23.9-1.51 2.09-2.69 3.59-3.52 1.49-.83 3.16-1.25 5-1.25 2.72 0 4.94.91 6.65 2.73 1.71 1.82 2.57 4.22 2.57 7.21v19.02h4.94V91.73c0-3.11-.62-5.74-1.88-7.86-1.25-2.13-2.88-3.73-4.87-4.8ZM484 77.94v5.26a13.08 13.08 0 0 0-4.77-4.24c-1.95-1.03-4.29-1.55-7.01-1.55-3.2 0-6 .73-8.39 2.2-2.39 1.47-4.24 3.47-5.56 5.99-1.32 2.52-1.97 5.36-1.97 8.52s.66 5.95 1.97 8.49c1.32 2.55 3.17 4.55 5.56 6.02 2.39 1.47 5.19 2.21 8.39 2.21 2.72 0 5.06-.54 7.01-1.61 1.95-1.08 3.54-2.49 4.77-4.25v4.54c0 3.38-.87 5.96-2.6 7.73-1.73 1.78-4.49 2.67-8.26 2.67-2.5 0-4.56-.45-6.19-1.35-1.62-.9-2.76-2.16-3.42-3.78h-5.46c.92 2.85 2.68 5.17 5.27 6.94 2.59 1.78 5.94 2.67 10.07 2.67 4.96 0 8.79-1.25 11.48-3.75 2.7-2.5 4.05-6.1 4.05-10.79V77.94H484Zm-1.09 22.34c-.9 1.87-2.19 3.35-3.88 4.44-1.69 1.1-3.74 1.65-6.15 1.65s-4.5-.55-6.25-1.65c-1.76-1.1-3.09-2.58-4.01-4.44-.92-1.86-1.38-3.91-1.38-6.15s.46-4.34 1.38-6.19a10.86 10.86 0 0 1 4.01-4.41c1.76-1.1 3.84-1.65 6.25-1.65s4.46.55 6.15 1.65c1.69 1.1 2.98 2.57 3.88 4.41.9 1.84 1.35 3.91 1.35 6.19s-.45 4.29-1.35 6.15Z" style="fill: var(--color-logo-secondary);" />
		<path d="M208.16 20.74c1.62-1.03 3.56-1.55 5.76-1.55s3.89.53 5.35 1.58a9.217 9.217 0 0 1 3.23 4.14l.26.66h7.44l-.4-1.34c-1.03-3.41-3.03-6.22-5.94-8.37-2.91-2.14-6.47-3.23-10.59-3.23-3.48 0-6.54.82-9.11 2.43-2.56 1.61-4.58 3.8-6 6.52-1.41 2.7-2.12 5.76-2.12 9.07s.71 6.31 2.12 9.03c1.42 2.74 3.44 4.95 6 6.56 2.57 1.61 5.63 2.43 9.11 2.43 4.11 0 7.67-1.09 10.59-3.23 2.91-2.15 4.91-4.96 5.94-8.37l.4-1.34h-7.44l-.26.66c-.68 1.72-1.73 3.07-3.23 4.15-1.46 1.05-3.26 1.58-5.35 1.58-2.2 0-4.14-.52-5.76-1.55-1.63-1.03-2.9-2.43-3.77-4.17-.89-1.75-1.34-3.69-1.34-5.75s.45-4.05 1.34-5.78c.87-1.71 2.14-3.1 3.78-4.14ZM258.46 15.06c-2.59-1.61-5.71-2.43-9.27-2.43s-6.62.82-9.23 2.42a16.37 16.37 0 0 0-6.04 6.53c-1.39 2.7-2.09 5.75-2.09 9.06s.74 6.32 2.2 9.04c1.46 2.74 3.55 4.95 6.2 6.55 2.65 1.61 5.78 2.42 9.29 2.42 4.12 0 7.55-1.01 10.2-3.01 2.62-1.97 4.57-4.55 5.77-7.66l.55-1.42h-7.53l-.29.54a9.958 9.958 0 0 1-3.34 3.61c-1.4.91-3.18 1.38-5.29 1.38s-3.78-.43-5.28-1.28c-1.5-.85-2.72-2.01-3.61-3.46-.7-1.14-1.21-2.38-1.52-3.71h27.37v-3.01c0-3.31-.7-6.36-2.09-9.06-1.4-2.72-3.42-4.92-6-6.53Zm-19.17 11.92c.55-2.05 1.57-3.82 3.03-5.26 1.72-1.7 3.97-2.53 6.87-2.53s5.16.83 6.91 2.53c1.48 1.44 2.48 3.21 3.01 5.26H239.3ZM294.34 14.37a14.436 14.436 0 0 0-6.91-1.74c-2.86 0-5.27.61-7.14 1.81a18.1 18.1 0 0 0-2.74 2.16v-3.44h-7.01v34.99h7.01v-20c0-1.78.4-3.36 1.2-4.7.8-1.35 1.88-2.4 3.2-3.14 1.33-.74 2.84-1.12 4.49-1.12 2.44 0 4.37.79 5.89 2.4 1.54 1.64 2.28 3.76 2.28 6.49v20.06h7.01V27.96c0-3.29-.68-6.11-2.02-8.39-1.34-2.28-3.12-4.03-5.27-5.19ZM317.55 1.38h-7.01v11.78h-6.71v6.42h6.71v28.57h7.01V19.58h7.57v-6.42h-7.57V1.38zM340.86 13.75c-1.58.73-2.91 1.63-3.95 2.68-.55.55-1.04 1.1-1.45 1.66v-4.92h-7.01v34.98h7.01V32.63c0-2.26.45-4.41 1.33-6.39.86-1.95 2.13-3.57 3.76-4.79 1.61-1.21 3.48-1.8 5.73-1.8h1.63v-7.01h-1.37c-2.16 0-4.07.38-5.67 1.12ZM375.96 16.7c-.95-.92-2.04-1.71-3.24-2.36-2.1-1.13-4.62-1.7-7.5-1.7-3.39 0-6.4.82-8.95 2.43-2.54 1.61-4.53 3.8-5.93 6.52-1.39 2.7-2.09 5.75-2.09 9.06s.7 6.3 2.09 9.03c1.4 2.74 3.39 4.95 5.93 6.56 2.55 1.61 5.56 2.43 8.95 2.43 2.88 0 5.4-.57 7.5-1.7 1.2-.65 2.29-1.43 3.24-2.34v3.51h7.01V13.16h-7.01v3.53Zm-.96 8.14c.81 1.74 1.22 3.7 1.22 5.81s-.41 4.02-1.22 5.78c-.79 1.72-1.97 3.12-3.49 4.15-1.51 1.02-3.4 1.53-5.64 1.53s-4.11-.52-5.69-1.54c-1.59-1.03-2.81-2.43-3.65-4.16-.85-1.76-1.28-3.7-1.28-5.77s.43-4.06 1.28-5.8c.83-1.71 2.06-3.09 3.65-4.13 1.58-1.02 3.49-1.54 5.69-1.54s4.13.52 5.64 1.53a10 10 0 0 1 3.49 4.12ZM389.45 0h7.01v48.15h-7.01zM438.12 29.09a32.54 32.54 0 0 0-5.48-1.6c-1.83-.37-3.59-.76-5.25-1.17-1.54-.39-2.81-.9-3.76-1.54-.76-.51-1.12-1.19-1.12-2.16 0-.91 0-3.7 6.79-3.7 2.5 0 4.28.43 5.29 1.27 1.01.84 1.57 1.81 1.71 2.95l.11.91h7.08l-.12-1.15c-.19-1.78-.82-3.47-1.85-5.01-1.04-1.55-2.57-2.83-4.55-3.81-1.96-.97-4.49-1.45-7.53-1.45-4.47 0-7.92.9-10.27 2.68-2.43 1.84-3.67 4.46-3.67 7.77 0 2.28.62 4.12 1.85 5.47 1.16 1.28 2.67 2.28 4.48 2.97 1.71.65 3.54 1.19 5.45 1.59 1.84.39 3.61.8 5.26 1.21 1.54.39 2.79.92 3.73 1.58.78.55 1.14 1.29 1.14 2.31 0 .84-.22 1.5-.67 2.01-.51.58-1.12 1-1.87 1.29-.82.32-1.68.54-2.56.66-.91.12-1.68.19-2.29.19-1.94 0-3.51-.29-4.68-.85-1.13-.55-1.97-1.26-2.49-2.11-.55-.9-.89-1.83-1.01-2.77l-.11-.92h-7.17l.08 1.11c.14 2.11.82 4.08 2.01 5.87 1.2 1.79 2.94 3.25 5.18 4.34 2.21 1.07 4.95 1.62 8.12 1.62 4.28 0 7.76-.91 10.36-2.72 2.72-1.89 4.1-4.64 4.1-8.19 0-2.31-.62-4.19-1.84-5.59-1.16-1.33-2.66-2.36-4.48-3.08ZM459.24 1.38h-7.01v11.78h-6.72v6.42h6.72v28.57h7.01V19.58h7.57v-6.42h-7.57V1.38zM495.14 16.7c-.95-.92-2.04-1.71-3.24-2.36-2.1-1.13-4.62-1.7-7.5-1.7-3.39 0-6.4.82-8.95 2.43-2.54 1.61-4.53 3.8-5.93 6.52-1.39 2.7-2.09 5.75-2.09 9.06s.7 6.3 2.09 9.03c1.4 2.74 3.39 4.95 5.93 6.56 2.55 1.61 5.56 2.43 8.95 2.43 2.88 0 5.4-.57 7.5-1.7 1.2-.65 2.29-1.43 3.24-2.34v3.51h7.01V13.16h-7.01v3.53Zm-.96 8.14c.81 1.74 1.22 3.7 1.22 5.81s-.41 4.02-1.22 5.78c-.79 1.72-1.97 3.12-3.49 4.15-1.51 1.02-3.4 1.53-5.64 1.53s-4.11-.52-5.69-1.54c-1.59-1.03-2.81-2.43-3.65-4.16-.85-1.76-1.28-3.7-1.28-5.77s.43-4.06 1.28-5.8c.83-1.71 2.06-3.09 3.65-4.13 1.58-1.02 3.49-1.54 5.69-1.54s4.13.52 5.64 1.53a10 10 0 0 1 3.49 4.12ZM519.19 1.38h-7.01v11.78h-6.71v6.42h6.71v28.57h7.01V19.58h7.57v-6.42h-7.57V1.38zM554.01 15.06c-2.59-1.61-5.71-2.43-9.27-2.43s-6.62.82-9.23 2.42a16.37 16.37 0 0 0-6.04 6.53c-1.39 2.7-2.09 5.75-2.09 9.06s.74 6.32 2.2 9.04c1.46 2.74 3.55 4.95 6.2 6.55 2.65 1.61 5.78 2.42 9.29 2.42 4.12 0 7.55-1.01 10.2-3.01 2.62-1.97 4.57-4.55 5.77-7.66l.55-1.42h-7.53l-.29.54a9.872 9.872 0 0 1-3.34 3.61c-1.4.91-3.18 1.38-5.29 1.38s-3.78-.43-5.28-1.28a9.828 9.828 0 0 1-3.61-3.46c-.7-1.14-1.21-2.38-1.52-3.71h27.37v-3.01c0-3.31-.7-6.36-2.09-9.06-1.4-2.72-3.42-4.92-6-6.53Zm-19.17 11.92c.55-2.05 1.57-3.82 3.03-5.26 1.72-1.7 3.97-2.53 6.87-2.53s5.16.83 6.91 2.53c1.48 1.44 2.49 3.21 3.01 5.26h-19.81ZM591.72 32.18c-1.16-1.33-2.66-2.36-4.48-3.08a32.54 32.54 0 0 0-5.48-1.6c-1.83-.37-3.6-.76-5.25-1.17-1.54-.39-2.81-.9-3.76-1.54-.76-.51-1.12-1.19-1.12-2.16 0-.91 0-3.7 6.79-3.7 2.5 0 4.28.43 5.29 1.27 1.01.84 1.57 1.81 1.71 2.95l.11.91h7.08l-.12-1.15c-.19-1.78-.82-3.47-1.85-5.01-1.04-1.55-2.57-2.83-4.55-3.81-1.96-.97-4.49-1.45-7.53-1.45-4.47 0-7.92.9-10.27 2.68-2.43 1.84-3.67 4.46-3.67 7.77 0 2.28.62 4.12 1.85 5.47 1.16 1.28 2.67 2.28 4.48 2.97 1.71.65 3.54 1.19 5.45 1.59 1.84.39 3.61.8 5.26 1.21 1.54.39 2.79.92 3.73 1.58.78.55 1.14 1.29 1.14 2.31 0 .84-.22 1.5-.67 2.01-.51.58-1.12 1-1.87 1.29-.82.32-1.68.54-2.56.66-.91.12-1.68.19-2.29.19-1.94 0-3.51-.29-4.68-.85-1.13-.55-1.97-1.26-2.49-2.11-.55-.9-.89-1.83-1.01-2.77l-.11-.92h-7.17l.08 1.11c.14 2.11.82 4.08 2.01 5.87 1.2 1.79 2.94 3.25 5.18 4.34 2.21 1.07 4.95 1.62 8.12 1.62 4.28 0 7.76-.91 10.36-2.72 2.72-1.89 4.1-4.64 4.1-8.19 0-2.31-.62-4.19-1.84-5.59Z" style="fill: var(--color-logo-primary);" />
		<path d="M64.78 55.75c0 3.55-1.92 6.65-4.78 8.34-1.43.85-3.1 1.33-4.89 1.33-.81 0-1.6-.1-2.35-.29-4.2-1.05-7.31-4.86-7.31-9.38s3.11-8.32 7.31-9.37c.75-.19 1.54-.29 2.35-.29 1.9 0 3.68.55 5.17 1.5 2.7 1.72 4.5 4.73 4.5 8.16Z" style="fill: var(--color-logo-secondary);" />
	</symbol>
</svg>
